<?xml version="1.0" encoding="UTF-8" standalone="no"?>
<svg
   xmlns:dc="http://purl.org/dc/elements/1.1/"
   xmlns:cc="http://creativecommons.org/ns#"
   xmlns:rdf="http://www.w3.org/1999/02/22-rdf-syntax-ns#"
   xmlns:svg="http://www.w3.org/2000/svg"
   xmlns="http://www.w3.org/2000/svg"
   xmlns:sodipodi="http://sodipodi.sourceforge.net/DTD/sodipodi-0.dtd"
   xmlns:inkscape="http://www.inkscape.org/namespaces/inkscape"
   width="352.1402mm"
   height="213.31068mm"
   viewBox="0 0 352.14019 213.31068"
   version="1.1"
   id="svg417"
   sodipodi:docname="logoverdeSumer.svg"
   inkscape:version="1.0.1 (3bc2e813f5, 2020-09-07)"
   inkscape:export-filename="C:\Users\jose zambrano\Documents\documentos SUMER\programacion\Portafolio\asset\portadaSumer.png"
   inkscape:export-xdpi="96"
   inkscape:export-ydpi="96">
  <defs
     id="defs411">
    <marker
       inkscape:stockid="Arrow1Lstart"
       orient="auto"
       refY="0"
       refX="0"
       id="marker5443"
       style="overflow:visible"
       inkscape:isstock="true">
      <path
         id="path5441"
         d="M 0,0 5,-5 -12.5,0 5,5 Z"
         style="fill:#c8b7be;fill-opacity:1;fill-rule:evenodd;stroke:#000000;stroke-width:1pt;stroke-opacity:1"
         transform="matrix(0.8,0,0,0.8,10,0)" />
    </marker>
  </defs>
  <sodipodi:namedview
     id="base"
     pagecolor="#ffffff"
     bordercolor="#666666"
     borderopacity="1.0"
     inkscape:pageopacity="0.0"
     inkscape:pageshadow="2"
     inkscape:zoom="0.50540525"
     inkscape:cx="758.62456"
     inkscape:cy="432.34529"
     inkscape:document-units="mm"
     inkscape:current-layer="layer1"
     inkscape:document-rotation="0"
     showgrid="false"
     fit-margin-top="0"
     fit-margin-left="0"
     fit-margin-right="0"
     fit-margin-bottom="0"
     inkscape:snap-global="false" />
  <metadata
     id="metadata414">
    <rdf:RDF>
      <cc:Work
         rdf:about="">
        <dc:format>image/svg+xml</dc:format>
        <dc:type
           rdf:resource="http://purl.org/dc/dcmitype/StillImage" />
        <dc:title></dc:title>
      </cc:Work>
    </rdf:RDF>
  </metadata>
  <g
     inkscape:label="Capa 1"
     inkscape:groupmode="layer"
     id="layer1"
     transform="translate(-149.02972,-489.19275)">
    <path
       sodipodi:nodetypes="cccccccc"
       inkscape:connector-curvature="0"
       id="path2063"
       d="m 472.31481,591.62127 c -1.79788,1.04509 -2.68264,2.10343 -2.68264,2.10343 0,0 -2.2148,2.55349 -0.73087,3.32042 1.48394,0.76693 2.10139,-2.99436 3.82482,-3.16656 2.3938,-2.35267 2.24189,-3.54295 3.85253,-4.88137 1.59807,-1.2251 1.78831,-4.11126 3.40884,-7.30987 0.80341,-2.74019 0.0966,-3.20507 -1.64332,-2.5818 -7.10217,2.11911 -3.12554,12.06995 -6.02936,12.51575 z"
       style="display:inline;fill:none;fill-opacity:1;stroke:#000000;stroke-width:0.264583px;stroke-linecap:butt;stroke-linejoin:miter;stroke-opacity:1"
       inkscape:export-xdpi="96"
       inkscape:export-ydpi="96"
       inkscape:export-filename="C:\Users\jose zambrano\Desktop\Proyecto Game\Imagenes\perfilverderaro.png" />
    <path
       sodipodi:nodetypes="cscccc"
       inkscape:connector-curvature="0"
       id="path2065"
       d="m 412.71109,582.00653 c 0,0 -2.75488,-3.67063 -2.16773,-8.19354 0.29536,-2.27521 1.39425,-4.01554 0.39099,-6.18109 0,0 0.0103,-4.72691 2.37615,-5.81395 2.48033,-0.76457 2.6338,3.20026 2.6338,3.20026 z"
       style="display:inline;fill:none;fill-opacity:1;stroke:#000000;stroke-width:0.264583px;stroke-linecap:butt;stroke-linejoin:miter;stroke-opacity:1"
       inkscape:export-xdpi="96"
       inkscape:export-ydpi="96"
       inkscape:export-filename="C:\Users\jose zambrano\Desktop\Proyecto Game\Imagenes\perfilverderaro.png" />
    <path
       sodipodi:nodetypes="cccscccsc"
       inkscape:connector-curvature="0"
       id="path2067"
       d="m 442.38915,571.53074 c 0,0 -5.21484,2.3235 -7.48844,5.11463 -1.20515,4.19173 3.17681,7.09754 4.64144,7.6655 0.74962,0.21778 1.45109,0.2173 3.73211,-0.54217 1.36312,-0.45385 4.13278,-0.53492 4.49736,0.89675 0.0755,0.73322 1.13801,0.29155 1.80372,-0.0965 0.30864,-0.25857 1.34623,-2.36815 0.21685,-3.78485 -2.08489,-1.76542 -4.44659,-7.52031 -5.08828,-9.0384 -0.64171,-1.51809 -2.31476,-0.21499 -2.31476,-0.21499 z"
       style="display:inline;opacity:0.219;fill:none;fill-opacity:1;stroke:#000000;stroke-width:0.264999;stroke-linecap:butt;stroke-linejoin:miter;stroke-miterlimit:4;stroke-dasharray:none;stroke-opacity:1"
       inkscape:export-xdpi="96"
       inkscape:export-ydpi="96"
       inkscape:export-filename="C:\Users\jose zambrano\Desktop\Proyecto Game\Imagenes\perfilverderaro.png" />
    <path
       sodipodi:nodetypes="cccc"
       inkscape:connector-curvature="0"
       id="path2069"
       d="m 434.92114,576.59954 c 0,0 -4.77763,1.1115 -2.85358,4.0433 3.49406,-1.16198 3.40393,0.65365 4.59309,1.54683 -1.89368,-1.86657 -2.265,-3.8578 -1.73951,-5.59013 z"
       style="display:inline;opacity:0.536;fill:#241c22;fill-opacity:1;stroke:#000000;stroke-width:0.264999;stroke-linecap:butt;stroke-linejoin:miter;stroke-miterlimit:4;stroke-dasharray:none;stroke-opacity:1"
       inkscape:export-xdpi="96"
       inkscape:export-ydpi="96"
       inkscape:export-filename="C:\Users\jose zambrano\Desktop\Proyecto Game\Imagenes\perfilverderaro.png" />
    <path
       sodipodi:nodetypes="sscscs"
       inkscape:connector-curvature="0"
       id="path2071"
       d="m 436.47061,582.22783 c -0.16969,0.24867 -0.74227,-0.61929 -1.78663,-0.98391 -1.14656,-0.40029 -2.3204,-0.35268 -2.09155,-0.68802 0.22886,-0.33536 1.41753,-0.59596 2.42167,-0.0188 0.22673,0.13027 1.68537,1.35538 1.45651,1.69075 z"
       style="display:inline;fill:#241c22;fill-rule:evenodd;stroke-width:0.264583"
       inkscape:export-xdpi="96"
       inkscape:export-ydpi="96"
       inkscape:export-filename="C:\Users\jose zambrano\Desktop\Proyecto Game\Imagenes\perfilverderaro.png" />
    <path
       sodipodi:nodetypes="cscsc"
       inkscape:connector-curvature="0"
       id="path2073"
       d="m 447.95582,584.82822 c -0.10643,0.39184 -1.15844,0.48598 -2.34974,0.21024 -1.19129,-0.27572 -2.97462,-0.56113 -2.86819,-0.95299 0.10642,-0.39183 2.38679,-0.74807 3.57808,-0.47234 1.19131,0.27573 1.74629,0.82323 1.63985,1.21507 z"
       style="display:inline;fill:#241c22;fill-rule:evenodd;stroke-width:0.264583"
       inkscape:export-xdpi="96"
       inkscape:export-ydpi="96"
       inkscape:export-filename="C:\Users\jose zambrano\Desktop\Proyecto Game\Imagenes\perfilverderaro.png" />
    <path
       sodipodi:nodetypes="cccccccccccccccczczccccc"
       inkscape:connector-curvature="0"
       id="path2077"
       d="m 411.81645,586.76194 c -1.77619,6.16839 -0.87649,10.86298 -0.33563,17.17199 1.39982,7.59232 3.32929,9.81653 7.66734,15.86841 6.03679,4.36668 11.68458,5.52392 18.86055,6.16875 10.08286,0.16588 20.64383,-4.91589 25.19885,-12.78726 2.91709,-4.6632 4.94672,-8.88646 6.39895,-13.6322 l 0.87914,-3.74032 -1.63218,0.63797 -0.1528,-1.17673 0.21008,-1.70873 -0.9156,1.04065 c -1.81449,8.3197 -7.19048,18.64396 -12.78013,17.09037 -0.40083,-3.12258 0.27181,-6.73662 -0.35722,-9.43075 -2.77753,2.98783 -1.62534,3.82795 -4.31183,9.69514 -7.1468,7.99566 -12.0079,9.20051 -16.93871,6.03675 0,0 -1.05718,-1.49911 -1.84632,-5.5825 -1.64993,3.5559 -6.06125,4.02542 -7.84745,2.76928 -1.7862,-1.25613 -5.87165,-10.30365 -5.63878,-20.16989 -0.23085,-0.89645 -0.15368,-1.08778 -0.84143,-0.97931 -0.68775,0.10848 -1.11657,2.66265 -1.11657,2.66265 -4.78039,4.55378 -1.98219,-5.71233 -1.20054,-16.95369 l -1.01393,-4.86667 -1.10251,6.0039 z"
       style="display:inline;fill:#aaffee;stroke:#000000;stroke-width:0.264583px;stroke-linecap:butt;stroke-linejoin:miter;stroke-opacity:1"
       inkscape:export-xdpi="96"
       inkscape:export-ydpi="96"
       inkscape:export-filename="C:\Users\jose zambrano\Desktop\Proyecto Game\Imagenes\perfilverderaro.png" />
    <path
       sodipodi:nodetypes="cccczcccccsccccczzczccczccccccccccczcczzczccczczccccc"
       inkscape:connector-curvature="0"
       id="path2075"
       d="m 414.18205,561.77702 -0.52998,-3.43023 0.53929,-3.99689 1.24669,-2.78284 c -1.04859,-0.98505 -1.62578,-4.86041 -0.90761,-8.66835 0.71817,-3.80794 4.44495,-9.33718 4.44495,-9.33718 0,0 2.15592,-4.84757 -3.19677,4.73803 3.3303,-10.12887 11.98396,-11.31694 11.98396,-11.31694 l 0.61862,-2.67457 c 0,0 -0.95397,-4.52706 1.20693,-8.01102 2.47903,-3.81486 3.80797,-5.54814 8.15936,-5.48434 3.50226,0.0514 8.13736,4.47334 8.13736,4.47334 l -4.41774,-2.38138 c 0,0 -4.49075,-1.68727 -6.88139,0.004 -3.57328,3.18685 -4.42014,6.36373 -2.75417,7.4568 4.38167,-2.79137 9.67931,-3.00308 9.67931,-3.00308 0,0 3.5061,-2.05219 6.21132,-1.07376 2.70521,0.97843 4.44658,-1.12847 10.07346,0.56084 5.62689,1.6893 7.41887,4.24927 7.41887,4.24927 0,0 3.86121,1.29732 7.86689,2.81187 4.00568,1.51454 6.49131,8.83474 6.49131,8.83474 l 3.6804,4.51709 3.37342,3.20268 c 0,0 2.31846,5.34294 2.56881,8.54337 0.25034,3.20042 -2.94017,10.12291 -2.94017,10.12291 l 0.29928,2.02889 c 0,0 -0.71813,2.59085 -2.27885,4.09235 1.40662,1.63836 1.13996,1.86096 1.13996,1.86096 l -4.04589,4.4732 -2.05062,3.59003 -1.48313,3.8387 -2.44329,2.32059 -2.31731,7.66472 -3.26419,4.60944 -0.86354,-0.44851 c 0,0 0.49715,0.13281 1.87119,-3.35923 1.37406,-3.49207 2.71193,-9.6206 2.71193,-9.6206 l 0.87764,-6.03479 c 0,0 0.26303,-6.60706 1.16062,-8.94 0.89758,-2.33293 2.35471,-2.99168 2.83255,-4.80961 0.47785,-1.81794 -0.95301,-5.66147 -0.95301,-5.66147 0,0 -0.82405,-6.77191 -2.51094,-9.50732 -1.68689,-2.73542 -8.05707,-5.98255 -8.05707,-5.98255 0,0 -8.1655,-4.74054 -11.63947,-2.53939 -0.64946,-3.60912 -7.04681,-3.99793 -7.04681,-3.99793 0,0 -9.92303,-2.80519 -13.00892,-1.36476 -3.08589,1.44043 -7.2396,4.84709 -7.2396,4.84709 0,0 -3.22202,5.44128 -3.52228,7.77484 -0.30025,2.33356 -0.65442,6.5867 -0.65442,6.5867 l -6.60863,12.25186 -1.517,5.57322 -0.16264,-3.05228 z"
       style="display:inline;fill:#aaffee;stroke:#000000;stroke-width:0.264583px;stroke-linecap:butt;stroke-linejoin:miter;stroke-opacity:1"
       inkscape:export-xdpi="96"
       inkscape:export-ydpi="96"
       inkscape:export-filename="C:\Users\jose zambrano\Desktop\Proyecto Game\Imagenes\perfilverderaro.png" />
    <path
       sodipodi:nodetypes="cccscc"
       inkscape:connector-curvature="0"
       id="path2079"
       d="m 432.11355,604.87314 c -1.28729,1.02689 -1.88757,2.34287 -2.60967,3.77411 l 1.89496,1.73797 c 0,0 2.80788,-0.2713 3.01152,-0.92467 0.20365,-0.65336 0.0631,-3.42132 0.0631,-3.42132 z"
       style="display:inline;fill:#241c22;stroke:#000000;stroke-width:0.264583px;stroke-linecap:butt;stroke-linejoin:miter;stroke-opacity:1"
       inkscape:export-xdpi="96"
       inkscape:export-ydpi="96"
       inkscape:export-filename="C:\Users\jose zambrano\Desktop\Proyecto Game\Imagenes\perfilverderaro.png" />
    <path
       sodipodi:nodetypes="ccccsc"
       inkscape:connector-curvature="0"
       id="path2081"
       d="m 437.34287,585.29661 -3.57618,5.32812 c -10.77896,-2.64047 -9.03551,-1.0592 -15.74959,2.81568 l 1.57104,-5.56534 c 2.3356,-1.6749 3.97937,-2.34564 6.59673,-2.52234 4.67835,-0.31584 8.33537,0.16067 11.158,-0.0561 z"
       style="display:inline;fill:#aaffee;stroke:#000000;stroke-width:0.264583px;stroke-linecap:butt;stroke-linejoin:miter;stroke-opacity:1"
       inkscape:export-xdpi="96"
       inkscape:export-ydpi="96"
       inkscape:export-filename="C:\Users\jose zambrano\Desktop\Proyecto Game\Imagenes\perfilverderaro.png" />
    <path
       sodipodi:nodetypes="ccccc"
       inkscape:connector-curvature="0"
       id="path2083"
       d="m 442.13673,592.87155 c 6.98328,3.62653 12.99743,7.34336 15.57374,10.32941 -0.0634,-3.41176 -0.69063,-5.4353 -1.90507,-7.84438 -2.13984,-2.1053 -8.46848,-2.89084 -13.67064,-8.88411 -0.33085,3.35874 -0.26155,2.68221 0.002,6.39908 z"
       style="display:inline;fill:#aaffee;stroke:#000000;stroke-width:0.264999;stroke-linecap:butt;stroke-linejoin:miter;stroke-miterlimit:4;stroke-dasharray:none;stroke-opacity:1"
       inkscape:export-xdpi="96"
       inkscape:export-ydpi="96"
       inkscape:export-filename="C:\Users\jose zambrano\Desktop\Proyecto Game\Imagenes\perfilverderaro.png" />
    <path
       sodipodi:nodetypes="ccscczcc"
       inkscape:connector-curvature="0"
       id="path2085"
       d="m 439.3751,555.54783 1.89933,3.28044 c 0,0 -7.36984,-3.79312 -8.31501,-4.00023 -4.63836,-1.01644 -8.69257,-1.58345 -8.69257,-1.58345 l 1.86281,-1.7262 c 0,0 1.28346,-0.10072 2.07768,0.005 0.79423,0.10559 4.18756,1.16768 4.18756,1.16768 z"
       style="display:inline;fill:#aaffee;stroke:#000000;stroke-width:0.264583px;stroke-linecap:butt;stroke-linejoin:miter;stroke-opacity:1"
       inkscape:export-xdpi="96"
       inkscape:export-ydpi="96"
       inkscape:export-filename="C:\Users\jose zambrano\Desktop\Proyecto Game\Imagenes\perfilverderaro.png" />
    <path
       sodipodi:nodetypes="czccczcc"
       inkscape:connector-curvature="0"
       id="path2087"
       d="m 456.40922,560.74144 c 0,0 -1.50593,0.32322 -2.4323,1.16558 -0.92638,0.84237 11.79934,3.3778 11.79934,3.3778 l 4.68044,0.93327 c 0,0 2.91992,2.49582 2.37059,1.00655 -0.53452,-1.39826 -1.98185,-3.78172 -2.34773,-4.31531 -0.36586,-0.53359 -3.63339,0.13475 -3.63339,0.13475 z"
       style="display:inline;fill:#aaffee;stroke:#000000;stroke-width:0.264583px;stroke-linecap:butt;stroke-linejoin:miter;stroke-opacity:1"
       inkscape:export-xdpi="96"
       inkscape:export-ydpi="96"
       inkscape:export-filename="C:\Users\jose zambrano\Desktop\Proyecto Game\Imagenes\perfilverderaro.png" />
    <path
       sodipodi:nodetypes="ccccscsccsccccsccc"
       inkscape:connector-curvature="0"
       id="path2089"
       d="m 477.73301,573.19135 -1.26229,2.74915 c -2.14025,-0.85771 -2.3547,-0.94514 -3.69489,-1.15232 l -3.3847,5.33144 c 0,0 -0.15543,-0.0117 -0.43979,-0.037 -2.9505,-0.2626 -19.78207,-1.99095 -20.89118,-7.33021 0,0 -1.09452,-5.63266 -0.72013,-6.83386 0.3744,-1.20119 -3.87019,-1.48653 -3.87019,-1.48653 -2.06097,3.82938 -3.20338,5.72363 -5.77935,6.51087 -0.73899,-0.23047 -19.27113,-1.28062 -19.50255,-6.69051 -0.20917,-4.88954 -0.0729,-6.39746 -0.0729,-6.39746 l 1.69456,-4.23134 c 3.59625,0.0907 12.82925,-0.34667 24.17757,7.52283 l 5.10929,1.49204 c 0,0 1.70835,-0.27826 6.46501,0.39413 0.13315,0.0188 0.27006,0.0394 0.41046,0.0616 7.85526,0.63149 17.28399,3.71074 20.20146,8.765 z"
       style="display:inline;opacity:0.98;fill:#aaffee;stroke:#000000;stroke-width:0.264583px;stroke-linecap:butt;stroke-linejoin:miter;stroke-opacity:1"
       inkscape:export-xdpi="96"
       inkscape:export-ydpi="96"
       inkscape:export-filename="C:\Users\jose zambrano\Desktop\Proyecto Game\Imagenes\perfilverderaro.png" />
    <path
       sodipodi:nodetypes="cscccc"
       inkscape:connector-curvature="0"
       id="path2091"
       d="m 449.02274,568.26818 c -0.0607,2.14996 -0.04,5.06219 1.88386,6.10184 5.38765,2.91146 15.43776,5.514 18.12532,4.21281 1.46208,-1.0074 3.94014,-7.13259 3.54536,-8.45562 -1.17437,-1.83527 -6.18248,-3.14865 -8.14549,-3.77939 -5.95968,-1.81182 -15.9494,-5.38991 -15.40905,1.92036 z"
       style="display:inline;opacity:0.98;fill:#ffffff;stroke:#000000;stroke-width:0.264583px;stroke-linecap:butt;stroke-linejoin:miter;stroke-opacity:1"
       inkscape:export-xdpi="96"
       inkscape:export-ydpi="96"
       inkscape:export-filename="C:\Users\jose zambrano\Desktop\Proyecto Game\Imagenes\perfilverderaro.png" />
    <path
       sodipodi:nodetypes="ccccc"
       inkscape:connector-curvature="0"
       id="path2093"
       d="m 439.23338,568.45941 c -2.56743,1.73381 -10.56309,-0.25287 -10.56309,-0.25287 -4.02442,-1.4084 -7.55262,-1.45122 -9.6036,-4.40208 -0.10599,-6.38155 2.07785,-8.48241 6.79016,-8.03279 8.3527,2.45279 21.62732,2.40268 13.37653,12.68774 z"
       style="display:inline;opacity:0.98;fill:#ffffff;stroke:#000000;stroke-width:0.264583px;stroke-linecap:butt;stroke-linejoin:miter;stroke-opacity:1"
       inkscape:export-xdpi="96"
       inkscape:export-ydpi="96"
       inkscape:export-filename="C:\Users\jose zambrano\Desktop\Proyecto Game\Imagenes\perfilverderaro.png" />
    <path
       sodipodi:nodetypes="czccsccccc"
       inkscape:connector-curvature="0"
       id="path2095"
       d="m 437.68182,594.2978 c -2.32804,-1.90129 -1.56537,-1.84968 -3.46947,-2.59254 -1.90409,-0.74285 -8.07674,-0.73105 -8.07674,-0.73105 l -2.36166,0.3424 c 0,0 4.28679,4.81988 5.6393,6.53566 0.98261,1.24653 12.03445,5.13113 13.44609,4.281 5.22714,-1.009 8.51053,-2.70899 8.4904,-2.71848 l -2.78894,-1.52216 c -0.74624,-0.64253 -5.43895,-3.11669 -7.0103,-3.77644 -1.78387,-0.91478 -3.86868,0.18161 -3.86868,0.18161 z"
       style="display:inline;opacity:0.99;fill:none;fill-opacity:0;stroke:#000000;stroke-width:0.264583px;stroke-linecap:butt;stroke-linejoin:miter;stroke-opacity:1"
       inkscape:export-xdpi="96"
       inkscape:export-ydpi="96"
       inkscape:export-filename="C:\Users\jose zambrano\Desktop\Proyecto Game\Imagenes\perfilverderaro.png" />
    <path
       sodipodi:nodetypes="ccccc"
       inkscape:connector-curvature="0"
       id="path2097"
       d="m 432.27001,596.79409 3.98131,1.29057 0.96201,-2.26838 -3.64628,-2.19094 z"
       style="display:inline;opacity:0.99;fill:#ffffff;stroke:#000000;stroke-width:0.264583px;stroke-linecap:butt;stroke-linejoin:miter;stroke-opacity:1"
       inkscape:export-xdpi="96"
       inkscape:export-ydpi="96"
       inkscape:export-filename="C:\Users\jose zambrano\Desktop\Proyecto Game\Imagenes\perfilverderaro.png" />
    <path
       sodipodi:nodetypes="cccc"
       inkscape:connector-curvature="0"
       id="path2099"
       d="m 429.36967,593.11872 0.019,1.74513 -3.19449,-1.94305 z"
       style="display:inline;opacity:0.99;fill:#ffffff;stroke:#000000;stroke-width:0.264583px;stroke-linecap:butt;stroke-linejoin:miter;stroke-opacity:1"
       inkscape:export-xdpi="96"
       inkscape:export-ydpi="96"
       inkscape:export-filename="C:\Users\jose zambrano\Desktop\Proyecto Game\Imagenes\perfilverderaro.png" />
    <path
       sodipodi:nodetypes="ccccc"
       inkscape:connector-curvature="0"
       id="path2101"
       d="m 429.51228,595.03519 2.73837,1.66726 1.14213,-3.03948 -3.86589,-0.51807 z"
       style="display:inline;opacity:0.99;fill:#ffffff;stroke:#000000;stroke-width:0.264583px;stroke-linecap:butt;stroke-linejoin:miter;stroke-opacity:1"
       inkscape:export-xdpi="96"
       inkscape:export-ydpi="96"
       inkscape:export-filename="C:\Users\jose zambrano\Desktop\Proyecto Game\Imagenes\perfilverderaro.png" />
    <path
       sodipodi:nodetypes="ccscc"
       inkscape:connector-curvature="0"
       id="path2103"
       d="m 437.39667,595.93775 c 1.30599,-0.29 0.89917,-0.38442 3.58462,0.2055 0,0 -0.80736,3.3219 -1.03828,3.24989 -0.23092,-0.072 -3.61272,-1.25342 -3.61272,-1.25342 z"
       style="display:inline;opacity:0.99;fill:#ffffff;stroke:#000000;stroke-width:0.264583px;stroke-linecap:butt;stroke-linejoin:miter;stroke-opacity:1"
       inkscape:export-xdpi="96"
       inkscape:export-ydpi="96"
       inkscape:export-filename="C:\Users\jose zambrano\Desktop\Proyecto Game\Imagenes\perfilverderaro.png" />
    <path
       sodipodi:nodetypes="ccccc"
       inkscape:connector-curvature="0"
       id="path2105"
       d="m 441.09206,596.15556 3.01504,1.04198 -0.75049,2.68986 c -1.03946,-0.19585 -2.07012,-0.20746 -3.11307,-0.49366 z"
       style="display:inline;opacity:0.99;fill:#ffffff;stroke:#000000;stroke-width:0.264583px;stroke-linecap:butt;stroke-linejoin:miter;stroke-opacity:1"
       inkscape:export-xdpi="96"
       inkscape:export-ydpi="96"
       inkscape:export-filename="C:\Users\jose zambrano\Desktop\Proyecto Game\Imagenes\perfilverderaro.png" />
    <path
       sodipodi:nodetypes="ccccc"
       inkscape:connector-curvature="0"
       id="path2107"
       d="m 444.25908,597.17292 2.24965,1.17933 -0.38174,1.53836 -2.61855,-0.006 z"
       style="display:inline;opacity:0.99;fill:#ffffff;stroke:#000000;stroke-width:0.264583px;stroke-linecap:butt;stroke-linejoin:miter;stroke-opacity:1"
       inkscape:export-xdpi="96"
       inkscape:export-ydpi="96"
       inkscape:export-filename="C:\Users\jose zambrano\Desktop\Proyecto Game\Imagenes\perfilverderaro.png" />
    <path
       sodipodi:nodetypes="cccc"
       style="display:inline;opacity:0.99;fill:#ffffff;stroke:#000000;stroke-width:0.264583px;stroke-linecap:butt;stroke-linejoin:miter;stroke-opacity:1"
       d="m 446.65928,598.42008 -0.40234,1.45901 2.92935,-0.37437 z"
       id="path2109"
       inkscape:connector-curvature="0"
       inkscape:export-xdpi="96"
       inkscape:export-ydpi="96"
       inkscape:export-filename="C:\Users\jose zambrano\Desktop\Proyecto Game\Imagenes\perfilverderaro.png" />
    <text
       xml:space="preserve"
       style="font-style:normal;font-variant:normal;font-weight:normal;font-stretch:normal;font-size:74.0833px;line-height:2;font-family:Castellar;-inkscape-font-specification:'Castellar, Normal';font-variant-ligatures:normal;font-variant-caps:normal;font-variant-numeric:normal;font-feature-settings:normal;text-align:start;letter-spacing:0px;word-spacing:0px;writing-mode:lr-tb;text-anchor:start;fill:#aaffee;fill-opacity:1;stroke:none;stroke-width:0.264583;"
       x="210.37451"
       y="657.88873"
       id="text37"><tspan
         sodipodi:role="line"
         id="tspan35"
         x="210.37451"
         y="657.88873"
         style="font-style:normal;font-variant:normal;font-weight:normal;font-stretch:normal;font-size:63.5px;font-family:Mistral;-inkscape-font-specification:Mistral;stroke-width:0.264583;fill:#aaffee;">ose Zambrano</tspan></text>
    <text
       xml:space="preserve"
       style="font-style:normal;font-variant:normal;font-weight:normal;font-stretch:normal;font-size:50.8px;line-height:2;font-family:Castellar;-inkscape-font-specification:'Castellar, Normal';font-variant-ligatures:normal;font-variant-caps:normal;font-variant-numeric:normal;font-feature-settings:normal;text-align:start;letter-spacing:0px;word-spacing:0px;writing-mode:lr-tb;text-anchor:start;fill:#aaffee;fill-opacity:1;stroke:none;stroke-width:0.264583;"
       x="164.90472"
       y="668.35339"
       id="text68"><tspan
         sodipodi:role="line"
         id="tspan66"
         x="164.90472"
         y="668.35339"
         style="font-style:normal;font-variant:normal;font-weight:normal;font-stretch:normal;font-size:176.389px;font-family:Mistral;-inkscape-font-specification:Mistral;stroke-width:0.264583;fill:#aaffee;">J</tspan></text>
  </g>
</svg>
