<?xml version="1.0" encoding="UTF-8" standalone="no"?>
<svg
   xmlns:dc="http://purl.org/dc/elements/1.1/"
   xmlns:cc="http://creativecommons.org/ns#"
   xmlns:rdf="http://www.w3.org/1999/02/22-rdf-syntax-ns#"
   xmlns:svg="http://www.w3.org/2000/svg"
   xmlns="http://www.w3.org/2000/svg"
   xmlns:sodipodi="http://sodipodi.sourceforge.net/DTD/sodipodi-0.dtd"
   xmlns:inkscape="http://www.inkscape.org/namespaces/inkscape"
   width="352.1402mm"
   height="213.31068mm"
   viewBox="0 0 352.14019 213.31068"
   version="1.1"
   id="svg417"
   sodipodi:docname="logoSumer.svg"
   inkscape:version="1.0.1 (3bc2e813f5, 2020-09-07)"
   inkscape:export-filename="C:\Users\jose zambrano\Documents\documentos SUMER\programacion\Portafolio\asset\portadaSumer.png"
   inkscape:export-xdpi="96"
   inkscape:export-ydpi="96">
  <defs
     id="defs411">
    <marker
       inkscape:stockid="Arrow1Lstart"
       orient="auto"
       refY="0"
       refX="0"
       id="marker5443"
       style="overflow:visible"
       inkscape:isstock="true">
      <path
         id="path5441"
         d="M 0,0 5,-5 -12.5,0 5,5 Z"
         style="fill:#c8b7be;fill-opacity:1;fill-rule:evenodd;stroke:#000000;stroke-width:1pt;stroke-opacity:1"
         transform="matrix(0.8,0,0,0.8,10,0)" />
    </marker>
  </defs>
  <sodipodi:namedview
     id="base"
     pagecolor="#ffffff"
     bordercolor="#666666"
     borderopacity="1.0"
     inkscape:pageopacity="0.0"
     inkscape:pageshadow="2"
     inkscape:zoom="0.35"
     inkscape:cx="1083.5527"
     inkscape:cy="342.90151"
     inkscape:document-units="mm"
     inkscape:current-layer="layer1"
     inkscape:document-rotation="0"
     showgrid="false"
     fit-margin-top="0"
     fit-margin-left="0"
     fit-margin-right="0"
     fit-margin-bottom="0"
     inkscape:snap-global="false" />
  <metadata
     id="metadata414">
    <rdf:RDF>
      <cc:Work
         rdf:about="">
        <dc:format>image/svg+xml</dc:format>
        <dc:type
           rdf:resource="http://purl.org/dc/dcmitype/StillImage" />
        <dc:title></dc:title>
      </cc:Work>
    </rdf:RDF>
  </metadata>
  <g
     inkscape:label="Capa 1"
     inkscape:groupmode="layer"
     id="layer1"
     transform="translate(-149.02972,-489.19275)">
    <path
       sodipodi:nodetypes="cccccccc"
       inkscape:connector-curvature="0"
       id="path2063"
       d="m 472.31481,591.62127 c -1.79788,1.04509 -2.68264,2.10343 -2.68264,2.10343 0,0 -2.2148,2.55349 -0.73087,3.32042 1.48394,0.76693 2.10139,-2.99436 3.82482,-3.16656 2.3938,-2.35267 2.24189,-3.54295 3.85253,-4.88137 1.59807,-1.2251 1.78831,-4.11126 3.40884,-7.30987 0.80341,-2.74019 0.0966,-3.20507 -1.64332,-2.5818 -7.10217,2.11911 -3.12554,12.06995 -6.02936,12.51575 z"
       style="display:inline;fill:none;fill-opacity:1;stroke:#000000;stroke-width:0.264583px;stroke-linecap:butt;stroke-linejoin:miter;stroke-opacity:1"
       inkscape:export-xdpi="96"
       inkscape:export-ydpi="96"
       inkscape:export-filename="C:\Users\jose zambrano\Desktop\Proyecto Game\Imagenes\perfilverderaro.png" />
    <path
       sodipodi:nodetypes="cscccc"
       inkscape:connector-curvature="0"
       id="path2065"
       d="m 412.71109,582.00653 c 0,0 -2.75488,-3.67063 -2.16773,-8.19354 0.29536,-2.27521 1.39425,-4.01554 0.39099,-6.18109 0,0 0.0103,-4.72691 2.37615,-5.81395 2.48033,-0.76457 2.6338,3.20026 2.6338,3.20026 z"
       style="display:inline;fill:none;fill-opacity:1;stroke:#000000;stroke-width:0.264583px;stroke-linecap:butt;stroke-linejoin:miter;stroke-opacity:1"
       inkscape:export-xdpi="96"
       inkscape:export-ydpi="96"
       inkscape:export-filename="C:\Users\jose zambrano\Desktop\Proyecto Game\Imagenes\perfilverderaro.png" />
    <path
       sodipodi:nodetypes="cccscccsc"
       inkscape:connector-curvature="0"
       id="path2067"
       d="m 442.38915,571.53074 c 0,0 -5.21484,2.3235 -7.48844,5.11463 -1.20515,4.19173 3.17681,7.09754 4.64144,7.6655 0.74962,0.21778 1.45109,0.2173 3.73211,-0.54217 1.36312,-0.45385 4.13278,-0.53492 4.49736,0.89675 0.0755,0.73322 1.13801,0.29155 1.80372,-0.0965 0.30864,-0.25857 1.34623,-2.36815 0.21685,-3.78485 -2.08489,-1.76542 -4.44659,-7.52031 -5.08828,-9.0384 -0.64171,-1.51809 -2.31476,-0.21499 -2.31476,-0.21499 z"
       style="display:inline;opacity:0.219;fill:none;fill-opacity:1;stroke:#000000;stroke-width:0.264999;stroke-linecap:butt;stroke-linejoin:miter;stroke-miterlimit:4;stroke-dasharray:none;stroke-opacity:1"
       inkscape:export-xdpi="96"
       inkscape:export-ydpi="96"
       inkscape:export-filename="C:\Users\jose zambrano\Desktop\Proyecto Game\Imagenes\perfilverderaro.png" />
    <path
       sodipodi:nodetypes="cccc"
       inkscape:connector-curvature="0"
       id="path2069"
       d="m 434.92114,576.59954 c 0,0 -4.77763,1.1115 -2.85358,4.0433 3.49406,-1.16198 3.40393,0.65365 4.59309,1.54683 -1.89368,-1.86657 -2.265,-3.8578 -1.73951,-5.59013 z"
       style="display:inline;opacity:0.536;fill:#241c22;fill-opacity:1;stroke:#000000;stroke-width:0.264999;stroke-linecap:butt;stroke-linejoin:miter;stroke-miterlimit:4;stroke-dasharray:none;stroke-opacity:1"
       inkscape:export-xdpi="96"
       inkscape:export-ydpi="96"
       inkscape:export-filename="C:\Users\jose zambrano\Desktop\Proyecto Game\Imagenes\perfilverderaro.png" />
    <path
       sodipodi:nodetypes="sscscs"
       inkscape:connector-curvature="0"
       id="path2071"
       d="m 436.47061,582.22783 c -0.16969,0.24867 -0.74227,-0.61929 -1.78663,-0.98391 -1.14656,-0.40029 -2.3204,-0.35268 -2.09155,-0.68802 0.22886,-0.33536 1.41753,-0.59596 2.42167,-0.0188 0.22673,0.13027 1.68537,1.35538 1.45651,1.69075 z"
       style="display:inline;fill:#241c22;fill-rule:evenodd;stroke-width:0.264583"
       inkscape:export-xdpi="96"
       inkscape:export-ydpi="96"
       inkscape:export-filename="C:\Users\jose zambrano\Desktop\Proyecto Game\Imagenes\perfilverderaro.png" />
    <path
       sodipodi:nodetypes="cscsc"
       inkscape:connector-curvature="0"
       id="path2073"
       d="m 447.95582,584.82822 c -0.10643,0.39184 -1.15844,0.48598 -2.34974,0.21024 -1.19129,-0.27572 -2.97462,-0.56113 -2.86819,-0.95299 0.10642,-0.39183 2.38679,-0.74807 3.57808,-0.47234 1.19131,0.27573 1.74629,0.82323 1.63985,1.21507 z"
       style="display:inline;fill:#241c22;fill-rule:evenodd;stroke-width:0.264583"
       inkscape:export-xdpi="96"
       inkscape:export-ydpi="96"
       inkscape:export-filename="C:\Users\jose zambrano\Desktop\Proyecto Game\Imagenes\perfilverderaro.png" />
    <path
       sodipodi:nodetypes="cccccccccccccccczczccccc"
       inkscape:connector-curvature="0"
       id="path2077"
       d="m 411.81645,586.76194 c -1.77619,6.16839 -0.87649,10.86298 -0.33563,17.17199 1.39982,7.59232 3.32929,9.81653 7.66734,15.86841 6.03679,4.36668 11.68458,5.52392 18.86055,6.16875 10.08286,0.16588 20.64383,-4.91589 25.19885,-12.78726 2.91709,-4.6632 4.94672,-8.88646 6.39895,-13.6322 l 0.87914,-3.74032 -1.63218,0.63797 -0.1528,-1.17673 0.21008,-1.70873 -0.9156,1.04065 c -1.81449,8.3197 -7.19048,18.64396 -12.78013,17.09037 -0.40083,-3.12258 0.27181,-6.73662 -0.35722,-9.43075 -2.77753,2.98783 -1.62534,3.82795 -4.31183,9.69514 -7.1468,7.99566 -12.0079,9.20051 -16.93871,6.03675 0,0 -1.05718,-1.49911 -1.84632,-5.5825 -1.64993,3.5559 -6.06125,4.02542 -7.84745,2.76928 -1.7862,-1.25613 -5.87165,-10.30365 -5.63878,-20.16989 -0.23085,-0.89645 -0.15368,-1.08778 -0.84143,-0.97931 -0.68775,0.10848 -1.11657,2.66265 -1.11657,2.66265 -4.78039,4.55378 -1.98219,-5.71233 -1.20054,-16.95369 l -1.01393,-4.86667 -1.10251,6.0039 z"
       style="display:inline;fill:#241c22;stroke:#000000;stroke-width:0.264583px;stroke-linecap:butt;stroke-linejoin:miter;stroke-opacity:1"
       inkscape:export-xdpi="96"
       inkscape:export-ydpi="96"
       inkscape:export-filename="C:\Users\jose zambrano\Desktop\Proyecto Game\Imagenes\perfilverderaro.png" />
    <path
       sodipodi:nodetypes="cccczcccccsccccczzczccczccccccccccczcczzczccczczccccc"
       inkscape:connector-curvature="0"
       id="path2075"
       d="m 414.18205,561.77702 -0.52998,-3.43023 0.53929,-3.99689 1.24669,-2.78284 c -1.04859,-0.98505 -1.62578,-4.86041 -0.90761,-8.66835 0.71817,-3.80794 4.44495,-9.33718 4.44495,-9.33718 0,0 2.15592,-4.84757 -3.19677,4.73803 3.3303,-10.12887 11.98396,-11.31694 11.98396,-11.31694 l 0.61862,-2.67457 c 0,0 -0.95397,-4.52706 1.20693,-8.01102 2.47903,-3.81486 3.80797,-5.54814 8.15936,-5.48434 3.50226,0.0514 8.13736,4.47334 8.13736,4.47334 l -4.41774,-2.38138 c 0,0 -4.49075,-1.68727 -6.88139,0.004 -3.57328,3.18685 -4.42014,6.36373 -2.75417,7.4568 4.38167,-2.79137 9.67931,-3.00308 9.67931,-3.00308 0,0 3.5061,-2.05219 6.21132,-1.07376 2.70521,0.97843 4.44658,-1.12847 10.07346,0.56084 5.62689,1.6893 7.41887,4.24927 7.41887,4.24927 0,0 3.86121,1.29732 7.86689,2.81187 4.00568,1.51454 6.49131,8.83474 6.49131,8.83474 l 3.6804,4.51709 3.37342,3.20268 c 0,0 2.31846,5.34294 2.56881,8.54337 0.25034,3.20042 -2.94017,10.12291 -2.94017,10.12291 l 0.29928,2.02889 c 0,0 -0.71813,2.59085 -2.27885,4.09235 1.40662,1.63836 1.13996,1.86096 1.13996,1.86096 l -4.04589,4.4732 -2.05062,3.59003 -1.48313,3.8387 -2.44329,2.32059 -2.31731,7.66472 -3.26419,4.60944 -0.86354,-0.44851 c 0,0 0.49715,0.13281 1.87119,-3.35923 1.37406,-3.49207 2.71193,-9.6206 2.71193,-9.6206 l 0.87764,-6.03479 c 0,0 0.26303,-6.60706 1.16062,-8.94 0.89758,-2.33293 2.35471,-2.99168 2.83255,-4.80961 0.47785,-1.81794 -0.95301,-5.66147 -0.95301,-5.66147 0,0 -0.82405,-6.77191 -2.51094,-9.50732 -1.68689,-2.73542 -8.05707,-5.98255 -8.05707,-5.98255 0,0 -8.1655,-4.74054 -11.63947,-2.53939 -0.64946,-3.60912 -7.04681,-3.99793 -7.04681,-3.99793 0,0 -9.92303,-2.80519 -13.00892,-1.36476 -3.08589,1.44043 -7.2396,4.84709 -7.2396,4.84709 0,0 -3.22202,5.44128 -3.52228,7.77484 -0.30025,2.33356 -0.65442,6.5867 -0.65442,6.5867 l -6.60863,12.25186 -1.517,5.57322 -0.16264,-3.05228 z"
       style="display:inline;fill:#241c22;stroke:#000000;stroke-width:0.264583px;stroke-linecap:butt;stroke-linejoin:miter;stroke-opacity:1"
       inkscape:export-xdpi="96"
       inkscape:export-ydpi="96"
       inkscape:export-filename="C:\Users\jose zambrano\Desktop\Proyecto Game\Imagenes\perfilverderaro.png" />
    <path
       sodipodi:nodetypes="cccscc"
       inkscape:connector-curvature="0"
       id="path2079"
       d="m 432.11355,604.87314 c -1.28729,1.02689 -1.88757,2.34287 -2.60967,3.77411 l 1.89496,1.73797 c 0,0 2.80788,-0.2713 3.01152,-0.92467 0.20365,-0.65336 0.0631,-3.42132 0.0631,-3.42132 z"
       style="display:inline;fill:#241c22;stroke:#000000;stroke-width:0.264583px;stroke-linecap:butt;stroke-linejoin:miter;stroke-opacity:1"
       inkscape:export-xdpi="96"
       inkscape:export-ydpi="96"
       inkscape:export-filename="C:\Users\jose zambrano\Desktop\Proyecto Game\Imagenes\perfilverderaro.png" />
    <path
       sodipodi:nodetypes="ccccsc"
       inkscape:connector-curvature="0"
       id="path2081"
       d="m 437.34287,585.29661 -3.57618,5.32812 c -10.77896,-2.64047 -9.03551,-1.0592 -15.74959,2.81568 l 1.57104,-5.56534 c 2.3356,-1.6749 3.97937,-2.34564 6.59673,-2.52234 4.67835,-0.31584 8.33537,0.16067 11.158,-0.0561 z"
       style="display:inline;fill:#241c22;stroke:#000000;stroke-width:0.264583px;stroke-linecap:butt;stroke-linejoin:miter;stroke-opacity:1"
       inkscape:export-xdpi="96"
       inkscape:export-ydpi="96"
       inkscape:export-filename="C:\Users\jose zambrano\Desktop\Proyecto Game\Imagenes\perfilverderaro.png" />
    <path
       sodipodi:nodetypes="ccccc"
       inkscape:connector-curvature="0"
       id="path2083"
       d="m 442.13673,592.87155 c 6.98328,3.62653 12.99743,7.34336 15.57374,10.32941 -0.0634,-3.41176 -0.69063,-5.4353 -1.90507,-7.84438 -2.13984,-2.1053 -8.46848,-2.89084 -13.67064,-8.88411 -0.33085,3.35874 -0.26155,2.68221 0.002,6.39908 z"
       style="display:inline;fill:#241c22;stroke:#000000;stroke-width:0.264999;stroke-linecap:butt;stroke-linejoin:miter;stroke-miterlimit:4;stroke-dasharray:none;stroke-opacity:1"
       inkscape:export-xdpi="96"
       inkscape:export-ydpi="96"
       inkscape:export-filename="C:\Users\jose zambrano\Desktop\Proyecto Game\Imagenes\perfilverderaro.png" />
    <path
       sodipodi:nodetypes="ccscczcc"
       inkscape:connector-curvature="0"
       id="path2085"
       d="m 439.3751,555.54783 1.89933,3.28044 c 0,0 -7.36984,-3.79312 -8.31501,-4.00023 -4.63836,-1.01644 -8.69257,-1.58345 -8.69257,-1.58345 l 1.86281,-1.7262 c 0,0 1.28346,-0.10072 2.07768,0.005 0.79423,0.10559 4.18756,1.16768 4.18756,1.16768 z"
       style="display:inline;fill:#241c22;stroke:#000000;stroke-width:0.264583px;stroke-linecap:butt;stroke-linejoin:miter;stroke-opacity:1"
       inkscape:export-xdpi="96"
       inkscape:export-ydpi="96"
       inkscape:export-filename="C:\Users\jose zambrano\Desktop\Proyecto Game\Imagenes\perfilverderaro.png" />
    <path
       sodipodi:nodetypes="czccczcc"
       inkscape:connector-curvature="0"
       id="path2087"
       d="m 456.40922,560.74144 c 0,0 -1.50593,0.32322 -2.4323,1.16558 -0.92638,0.84237 11.79934,3.3778 11.79934,3.3778 l 4.68044,0.93327 c 0,0 2.91992,2.49582 2.37059,1.00655 -0.53452,-1.39826 -1.98185,-3.78172 -2.34773,-4.31531 -0.36586,-0.53359 -3.63339,0.13475 -3.63339,0.13475 z"
       style="display:inline;fill:#241c22;stroke:#000000;stroke-width:0.264583px;stroke-linecap:butt;stroke-linejoin:miter;stroke-opacity:1"
       inkscape:export-xdpi="96"
       inkscape:export-ydpi="96"
       inkscape:export-filename="C:\Users\jose zambrano\Desktop\Proyecto Game\Imagenes\perfilverderaro.png" />
    <path
       sodipodi:nodetypes="ccccscsccsccccsccc"
       inkscape:connector-curvature="0"
       id="path2089"
       d="m 477.73301,573.19135 -1.26229,2.74915 c -2.14025,-0.85771 -2.3547,-0.94514 -3.69489,-1.15232 l -3.3847,5.33144 c 0,0 -0.15543,-0.0117 -0.43979,-0.037 -2.9505,-0.2626 -19.78207,-1.99095 -20.89118,-7.33021 0,0 -1.09452,-5.63266 -0.72013,-6.83386 0.3744,-1.20119 -3.87019,-1.48653 -3.87019,-1.48653 -2.06097,3.82938 -3.20338,5.72363 -5.77935,6.51087 -0.73899,-0.23047 -19.27113,-1.28062 -19.50255,-6.69051 -0.20917,-4.88954 -0.0729,-6.39746 -0.0729,-6.39746 l 1.69456,-4.23134 c 3.59625,0.0907 12.82925,-0.34667 24.17757,7.52283 l 5.10929,1.49204 c 0,0 1.70835,-0.27826 6.46501,0.39413 0.13315,0.0188 0.27006,0.0394 0.41046,0.0616 7.85526,0.63149 17.28399,3.71074 20.20146,8.765 z"
       style="display:inline;opacity:0.98;fill:#000000;stroke:#000000;stroke-width:0.264583px;stroke-linecap:butt;stroke-linejoin:miter;stroke-opacity:1"
       inkscape:export-xdpi="96"
       inkscape:export-ydpi="96"
       inkscape:export-filename="C:\Users\jose zambrano\Desktop\Proyecto Game\Imagenes\perfilverderaro.png" />
    <path
       sodipodi:nodetypes="cscccc"
       inkscape:connector-curvature="0"
       id="path2091"
       d="m 449.02274,568.26818 c -0.0607,2.14996 -0.04,5.06219 1.88386,6.10184 5.38765,2.91146 15.43776,5.514 18.12532,4.21281 1.46208,-1.0074 3.94014,-7.13259 3.54536,-8.45562 -1.17437,-1.83527 -6.18248,-3.14865 -8.14549,-3.77939 -5.95968,-1.81182 -15.9494,-5.38991 -15.40905,1.92036 z"
       style="display:inline;opacity:0.98;fill:#ffffff;stroke:#000000;stroke-width:0.264583px;stroke-linecap:butt;stroke-linejoin:miter;stroke-opacity:1"
       inkscape:export-xdpi="96"
       inkscape:export-ydpi="96"
       inkscape:export-filename="C:\Users\jose zambrano\Desktop\Proyecto Game\Imagenes\perfilverderaro.png" />
    <path
       sodipodi:nodetypes="ccccc"
       inkscape:connector-curvature="0"
       id="path2093"
       d="m 439.23338,568.45941 c -2.56743,1.73381 -10.56309,-0.25287 -10.56309,-0.25287 -4.02442,-1.4084 -7.55262,-1.45122 -9.6036,-4.40208 -0.10599,-6.38155 2.07785,-8.48241 6.79016,-8.03279 8.3527,2.45279 21.62732,2.40268 13.37653,12.68774 z"
       style="display:inline;opacity:0.98;fill:#ffffff;stroke:#000000;stroke-width:0.264583px;stroke-linecap:butt;stroke-linejoin:miter;stroke-opacity:1"
       inkscape:export-xdpi="96"
       inkscape:export-ydpi="96"
       inkscape:export-filename="C:\Users\jose zambrano\Desktop\Proyecto Game\Imagenes\perfilverderaro.png" />
    <path
       sodipodi:nodetypes="czccsccccc"
       inkscape:connector-curvature="0"
       id="path2095"
       d="m 437.68182,594.2978 c -2.32804,-1.90129 -1.56537,-1.84968 -3.46947,-2.59254 -1.90409,-0.74285 -8.07674,-0.73105 -8.07674,-0.73105 l -2.36166,0.3424 c 0,0 4.28679,4.81988 5.6393,6.53566 0.98261,1.24653 12.03445,5.13113 13.44609,4.281 5.22714,-1.009 8.51053,-2.70899 8.4904,-2.71848 l -2.78894,-1.52216 c -0.74624,-0.64253 -5.43895,-3.11669 -7.0103,-3.77644 -1.78387,-0.91478 -3.86868,0.18161 -3.86868,0.18161 z"
       style="display:inline;opacity:0.99;fill:none;fill-opacity:0;stroke:#000000;stroke-width:0.264583px;stroke-linecap:butt;stroke-linejoin:miter;stroke-opacity:1"
       inkscape:export-xdpi="96"
       inkscape:export-ydpi="96"
       inkscape:export-filename="C:\Users\jose zambrano\Desktop\Proyecto Game\Imagenes\perfilverderaro.png" />
    <path
       sodipodi:nodetypes="ccccc"
       inkscape:connector-curvature="0"
       id="path2097"
       d="m 432.27001,596.79409 3.98131,1.29057 0.96201,-2.26838 -3.64628,-2.19094 z"
       style="display:inline;opacity:0.99;fill:#ffffff;stroke:#000000;stroke-width:0.264583px;stroke-linecap:butt;stroke-linejoin:miter;stroke-opacity:1"
       inkscape:export-xdpi="96"
       inkscape:export-ydpi="96"
       inkscape:export-filename="C:\Users\jose zambrano\Desktop\Proyecto Game\Imagenes\perfilverderaro.png" />
    <path
       sodipodi:nodetypes="cccc"
       inkscape:connector-curvature="0"
       id="path2099"
       d="m 429.36967,593.11872 0.019,1.74513 -3.19449,-1.94305 z"
       style="display:inline;opacity:0.99;fill:#ffffff;stroke:#000000;stroke-width:0.264583px;stroke-linecap:butt;stroke-linejoin:miter;stroke-opacity:1"
       inkscape:export-xdpi="96"
       inkscape:export-ydpi="96"
       inkscape:export-filename="C:\Users\jose zambrano\Desktop\Proyecto Game\Imagenes\perfilverderaro.png" />
    <path
       sodipodi:nodetypes="ccccc"
       inkscape:connector-curvature="0"
       id="path2101"
       d="m 429.51228,595.03519 2.73837,1.66726 1.14213,-3.03948 -3.86589,-0.51807 z"
       style="display:inline;opacity:0.99;fill:#ffffff;stroke:#000000;stroke-width:0.264583px;stroke-linecap:butt;stroke-linejoin:miter;stroke-opacity:1"
       inkscape:export-xdpi="96"
       inkscape:export-ydpi="96"
       inkscape:export-filename="C:\Users\jose zambrano\Desktop\Proyecto Game\Imagenes\perfilverderaro.png" />
    <path
       sodipodi:nodetypes="ccscc"
       inkscape:connector-curvature="0"
       id="path2103"
       d="m 437.39667,595.93775 c 1.30599,-0.29 0.89917,-0.38442 3.58462,0.2055 0,0 -0.80736,3.3219 -1.03828,3.24989 -0.23092,-0.072 -3.61272,-1.25342 -3.61272,-1.25342 z"
       style="display:inline;opacity:0.99;fill:#ffffff;stroke:#000000;stroke-width:0.264583px;stroke-linecap:butt;stroke-linejoin:miter;stroke-opacity:1"
       inkscape:export-xdpi="96"
       inkscape:export-ydpi="96"
       inkscape:export-filename="C:\Users\jose zambrano\Desktop\Proyecto Game\Imagenes\perfilverderaro.png" />
    <path
       sodipodi:nodetypes="ccccc"
       inkscape:connector-curvature="0"
       id="path2105"
       d="m 441.09206,596.15556 3.01504,1.04198 -0.75049,2.68986 c -1.03946,-0.19585 -2.07012,-0.20746 -3.11307,-0.49366 z"
       style="display:inline;opacity:0.99;fill:#ffffff;stroke:#000000;stroke-width:0.264583px;stroke-linecap:butt;stroke-linejoin:miter;stroke-opacity:1"
       inkscape:export-xdpi="96"
       inkscape:export-ydpi="96"
       inkscape:export-filename="C:\Users\jose zambrano\Desktop\Proyecto Game\Imagenes\perfilverderaro.png" />
    <path
       sodipodi:nodetypes="ccccc"
       inkscape:connector-curvature="0"
       id="path2107"
       d="m 444.25908,597.17292 2.24965,1.17933 -0.38174,1.53836 -2.61855,-0.006 z"
       style="display:inline;opacity:0.99;fill:#ffffff;stroke:#000000;stroke-width:0.264583px;stroke-linecap:butt;stroke-linejoin:miter;stroke-opacity:1"
       inkscape:export-xdpi="96"
       inkscape:export-ydpi="96"
       inkscape:export-filename="C:\Users\jose zambrano\Desktop\Proyecto Game\Imagenes\perfilverderaro.png" />
    <path
       sodipodi:nodetypes="cccc"
       style="display:inline;opacity:0.99;fill:#ffffff;stroke:#000000;stroke-width:0.264583px;stroke-linecap:butt;stroke-linejoin:miter;stroke-opacity:1"
       d="m 446.65928,598.42008 -0.40234,1.45901 2.92935,-0.37437 z"
       id="path2109"
       inkscape:connector-curvature="0"
       inkscape:export-xdpi="96"
       inkscape:export-ydpi="96"
       inkscape:export-filename="C:\Users\jose zambrano\Desktop\Proyecto Game\Imagenes\perfilverderaro.png" />
    <g
       aria-label="ose Zambrano"
       id="text37"
       style="font-style:normal;font-variant:normal;font-weight:normal;font-stretch:normal;font-size:74.0833px;line-height:2;font-family:Castellar;-inkscape-font-specification:'Castellar, Normal';font-variant-ligatures:normal;font-variant-caps:normal;font-variant-numeric:normal;font-feature-settings:normal;text-align:start;letter-spacing:0px;word-spacing:0px;writing-mode:lr-tb;text-anchor:start;fill:#000000;fill-opacity:1;stroke:none;stroke-width:0.264583">
      <path
         d="m 209.2583,648.64899 q 0.21704,-0.21704 0.46509,-0.55811 0.21704,-0.37207 0.5271,-0.80615 l 2.38745,-1.64331 q 0.43408,-0.5271 1.33325,-1.33325 0.89917,-0.83716 2.23242,-2.01538 0.15503,-0.34107 0.4961,-0.77515 0.37207,-0.46509 0.86816,-0.89917 0.43408,-0.40308 0.86817,-0.74414 0.43408,-0.37207 0.80615,-0.71314 0.46509,-0.46508 0.86816,-0.93017 0.43408,-0.46509 0.86817,-0.89917 0.49609,-0.43408 1.02319,-0.68213 0.5271,-0.24805 1.14722,-0.24805 0.68212,0 1.02319,0.18604 0.37207,0.15503 0.40308,0.46509 -0.31006,0.71313 -0.65113,1.42626 l 0.18604,0.27906 q 1.36426,-0.5271 2.1394,-0.77515 0.77515,-0.24805 0.99219,-0.24805 2.26343,0 3.37964,1.39527 1.14721,1.36426 1.14721,4.15478 0,0.5271 -0.12402,1.24024 -0.12402,0.71313 -0.40307,1.55029 -0.31006,0.93018 -0.68213,1.55029 -0.34107,0.62012 -0.65113,0.89917 0.12403,0.40308 0.27906,0.58911 0.15503,0.15503 0.40307,0.15503 0.24805,0 0.4961,-0.15503 0.27905,-0.15502 0.65112,-0.46508 0.31006,0.68213 0.58911,1.42627 0.31006,0.71313 0.62012,1.42627 -0.55811,0.49609 -1.08521,0.96118 -0.5271,0.46509 -1.11621,0.89917 -0.71313,0.58911 -1.36426,0.86816 -0.62011,0.24805 -1.24023,0.24805 -0.71314,0 -1.17822,-0.34107 -0.46509,-0.34106 -0.74414,-0.96118 -0.77515,1.0232 -1.89136,1.89136 -1.08521,0.83716 -2.41846,1.39526 -0.77515,0.37207 -1.42627,0.58911 -0.62012,0.18604 -1.14721,0.18604 -0.15503,0 -0.62012,0.12402 -0.43408,0.12403 -0.71314,0.12403 -1.76733,0 -3.1936,-1.48828 -1.42627,-1.48829 -1.42627,-3.31763 0,-0.74414 0.34106,-1.95337 0.34107,-1.24023 0.34107,-1.45728 0,-0.21704 -0.15503,-0.34106 -0.12402,-0.15503 -0.37207,-0.15503 -0.15503,0 -0.74414,0.46509 -0.58911,0.46509 -1.67432,1.33325 -0.093,0.12402 -0.21704,0.37207 -0.12402,0.24805 -0.40307,0.55811 -0.24805,-0.71314 -0.55811,-1.42627 -0.31006,-0.74414 -0.68213,-1.42627 z m 14.91382,-5.67408 q -0.15503,0.031 -0.46509,0.34107 -0.27905,0.27905 -0.5581,0.71313 -0.43409,0.71314 -0.99219,1.5503 -0.34107,0.37207 -0.74414,0.58911 -0.37207,0.18603 -0.86817,0.27905 -0.31006,0.031 -0.65112,0.62012 -0.34106,0.5581 -0.68213,1.64331 -0.34106,0.96118 -0.49609,1.64331 -0.15503,0.68213 -0.15503,1.14722 0,0.86816 0.43408,1.30224 0.43408,0.43408 1.33325,0.43408 1.42627,0 2.60449,-0.77514 1.20923,-0.80615 2.26343,-2.38745 0.4961,-0.58911 0.93018,-1.11621 0.24805,-0.18604 0.40307,-0.58912 0.15503,-0.43408 0.31006,-1.0542 l 0.55811,-1.76733 q -0.27905,-0.93017 -0.5271,-1.45727 -0.24805,-0.55811 -0.49609,-0.68213 -0.15503,-0.093 -0.68213,-0.18604 -0.5271,-0.12402 -1.51929,-0.24805 z"
         style="font-style:normal;font-variant:normal;font-weight:normal;font-stretch:normal;font-size:63.5px;font-family:Mistral;-inkscape-font-specification:Mistral;stroke-width:0.264583"
         id="path63" />
      <path
         d="m 231.67554,648.64899 0.18603,-0.21704 q 0.12403,-0.43409 0.55811,-0.93018 0.40307,-0.49609 1.17822,-0.99219 1.02319,-0.65112 1.5813,-1.0542 0.58911,-0.40307 0.71313,-0.58911 0.27906,-0.34106 0.37207,-0.5271 0.34107,-0.24804 0.83716,-0.68213 0.4961,-0.43408 1.11621,-1.0542 0.21704,-0.15503 0.46509,-0.49609 0.24805,-0.34106 0.4961,-0.77515 0.40307,-0.27905 0.89916,-0.71313 0.5271,-0.43408 1.20923,-1.11621 0.77515,-0.83716 1.73633,-1.82935 0.99219,-1.02319 2.20142,-2.1084 0.40307,-0.18603 0.74414,-0.27905 0.37207,-0.12402 0.71313,-0.12402 1.39527,0 2.0774,0.68213 0.71313,0.65112 0.71313,1.89135 0,0.31006 -0.12402,1.0232 -0.093,0.71313 -0.21704,1.79834 -0.43409,3.13159 -0.62012,3.81372 -0.18604,0.68213 -1.30225,4.27881 -0.24804,0.58911 -0.5271,1.45727 -0.24804,0.86817 -0.62011,2.1084 0.062,0.12402 0.31005,0.24805 0.21705,0 0.77515,-0.40308 0.55811,-0.43408 1.48828,-1.27124 1.08521,-0.99219 1.70532,-1.51929 0.62012,-0.5271 0.77515,-0.62011 0.37207,0.83716 0.68213,1.55029 0.31006,0.68213 0.5271,1.30225 -0.40308,0.24804 -0.74414,0.5581 -0.31006,0.31006 -0.58911,0.68213 -0.65113,0.43408 -1.51929,0.99219 -0.83716,0.5581 -1.86035,1.20923 -0.46509,0.46508 -1.27124,1.14721 -0.77515,0.65113 -1.76734,1.48828 l -0.58911,0.12403 q -0.43408,0.58911 -0.83715,0.89917 -0.37208,0.31006 -0.68213,0.43408 -0.4961,0.18603 -0.99219,0.34106 -0.4961,0.18604 -1.0542,0.37207 -0.34107,-0.093 -0.49609,-0.40307 -0.15503,-0.31006 -0.12403,-0.80615 -0.46509,-0.83716 -0.74414,-1.92237 -0.27905,-1.0852 -0.27905,-2.41845 0,-0.24805 0.031,-0.5271 0.031,-0.27906 0.062,-0.4961 -0.21704,-0.80615 -0.21704,-0.96118 0,-0.93018 0.71313,-1.51929 0.71313,-0.62011 1.6123,-0.62011 0.46509,0 0.65113,0.49609 0.21704,0.46509 0.43408,0.46509 0.21704,0 0.43408,-0.83716 0.24805,-0.86816 0.46509,-2.51147 0.21704,-1.42627 0.27905,-2.48047 0.062,-1.0542 0.062,-1.61231 0,-0.40307 -0.18603,-0.58911 -0.15503,-0.21704 -0.55811,-0.21704 -0.40307,0 -2.60449,1.86035 -2.20141,1.86035 -6.13916,5.55005 -0.12402,0.21704 -0.37207,0.5271 -0.21704,0.31006 -0.5271,0.77515 -0.12402,-0.46509 -0.43408,-1.14722 -0.31006,-0.68213 -0.80615,-1.70532 z"
         style="font-style:normal;font-variant:normal;font-weight:normal;font-stretch:normal;font-size:63.5px;font-family:Mistral;-inkscape-font-specification:Mistral;stroke-width:0.264583"
         id="path65" />
      <path
         d="m 251.08521,648.64899 q 0.37207,-0.65113 0.96118,-1.30225 0.58911,-0.68213 1.48828,-1.39526 0.093,-0.62012 0.18603,-1.20923 0.093,-0.62012 0.12403,-1.24024 0.093,-0.43408 0.27905,-1.02319 0.21704,-0.58911 0.46509,-1.27124 0.27905,-0.68213 0.74414,-1.70532 0.49609,-1.0232 1.27124,-2.29444 0.65112,-0.71313 1.36426,-1.55029 0.71313,-0.86816 1.42627,-1.73633 0.34106,-0.27905 0.74414,-0.5271 0.40307,-0.24804 0.80615,-0.5581 0.37207,-0.12402 0.83716,-0.21704 0.46508,-0.093 1.02319,-0.093 0.77515,0 1.24023,0.15503 0.4961,0.15503 0.80616,0.5271 0.21704,0.24805 0.40307,0.74414 0.21704,0.49609 0.40308,1.20923 0.093,0.62012 0.21704,1.36426 0,-0.18604 -0.12402,0.15503 -0.093,0.34106 -0.31006,1.0852 l -0.27905,0.99219 q -0.43409,1.48828 -1.95337,3.44165 -1.51929,1.95337 -4.09278,4.46484 -0.21704,0.21704 -0.37207,0.55811 -0.15503,0.31006 -0.15503,0.68213 0,0.65112 0.21704,1.14721 0.24805,0.4961 0.68213,0.74414 0.24805,0.18604 0.77515,0.37207 0.5581,0.18604 1.30225,0.34107 1.20922,-0.093 2.20141,-0.40308 0.99219,-0.31006 1.76734,-0.74414 0.15502,-0.093 0.49609,-0.24805 0.34106,-0.18603 0.68213,-0.46508 0.40307,0.89917 0.71313,1.6123 0.31006,0.71314 0.4961,1.24024 -1.76734,1.73632 -3.22461,2.63549 -1.42627,0.86817 -2.6355,0.86817 -0.49609,0.31006 -1.14722,0.46509 -0.62011,0.12402 -1.48828,0.12402 -1.14722,0 -2.04639,-0.34107 -0.86816,-0.34106 -1.45727,-0.99218 -0.31006,-0.31006 -0.62012,-0.89917 -0.31006,-0.62012 -0.65112,-1.45728 -0.27905,-0.68213 -0.5271,-0.99219 -0.24805,-0.34106 -0.55811,-0.34106 -0.24804,0 -0.5581,0.24805 -0.31006,0.21704 -0.68213,0.68213 -0.12402,-0.46509 -0.43408,-1.14722 -0.31006,-0.68213 -0.80615,-1.70532 z m 9.92187,-10.07691 q -0.68213,0 -1.82935,1.79834 -1.14721,1.76734 -1.14721,2.60449 0,0.18604 0.062,0.27906 0.093,0.062 0.34106,0.062 0.34107,0 0.55811,-0.34107 0.21704,-0.37207 0.40308,-0.68212 0.34106,-0.31006 0.65112,-0.65113 0.34106,-0.37207 0.65112,-0.71313 0.37207,-0.43408 0.55811,-0.86817 0.18603,-0.43408 0.18603,-0.86816 0,-0.27905 -0.12402,-0.43408 -0.093,-0.18604 -0.31006,-0.18604 z"
         style="font-style:normal;font-variant:normal;font-weight:normal;font-stretch:normal;font-size:63.5px;font-family:Mistral;-inkscape-font-specification:Mistral;stroke-width:0.264583"
         id="path67" />
      <path
         d="m 309.34521,648.64899 q 0.18604,0.40307 0.40308,0.93017 0.24805,0.5271 0.55811,1.20923 0.15503,0.21704 0.21704,0.40308 0.062,0.15503 0.062,0.31006 -1.86035,0.86816 -3.90674,1.58129 -2.04639,0.71314 -4.30981,1.33326 -0.58911,0.15503 -1.42627,0.34106 -0.80616,0.15503 -1.86035,0.43408 -0.83716,0.31006 -2.0774,0.74414 -1.20923,0.40308 -2.82153,0.83716 -1.02319,0.27905 -2.07739,0.5271 -1.0232,0.24805 -2.04639,0.46509 -1.27124,0.31006 -2.35645,0.46509 -1.05419,0.15503 -1.79833,0.15503 -1.95337,0 -2.91456,-0.74414 -0.99218,-0.74414 -0.99218,-2.23243 0,-1.51928 0.5581,-2.88354 0.5271,-1.39526 1.64331,-2.6355 0.31006,-0.49609 0.80616,-1.11621 0.52709,-0.62012 1.20922,-1.39526 0.46509,-0.37207 1.20923,-1.14722 0.74414,-0.80615 1.79834,-2.20142 0.71314,-0.86816 1.45728,-1.82934 0.77514,-0.96118 1.48828,-1.89136 0.34106,-0.43408 0.83716,-1.14722 0.5271,-0.71313 1.17822,-1.64331 0.40308,-0.37207 0.89917,-0.93017 0.5271,-0.55811 1.14722,-1.33325 0.86816,-1.11622 1.82934,-2.54248 0.99219,-1.45728 2.07739,-3.19361 1.73633,-2.6665 2.57349,-4.34082 0.86816,-1.70532 0.86816,-2.41846 0,-0.40307 -0.49609,-0.80615 -0.49609,-0.43408 -1.51929,-0.86816 -0.86816,-0.37207 -1.55029,-0.55811 -0.65112,-0.21704 -1.11621,-0.24804 l -2.35645,-0.093 q -0.40307,-0.12403 -0.83715,-0.24805 -0.43409,-0.15503 -0.96118,-0.27905 l -1.51929,0.49609 q -0.58911,-0.18603 -1.08521,-0.27905 -0.46509,-0.093 -0.93017,-0.093 -1.86035,0.12403 -3.44165,0.31006 l -0.83716,-0.31006 q -0.15503,-0.12402 -0.24805,-0.46509 -0.062,-0.37207 -0.21704,-0.96118 0.21704,-0.40307 0.55811,-1.02319 0.34106,-0.65112 0.74414,-1.45728 0.12402,-0.43408 0.15503,-0.65112 0.37207,-1.0852 1.24023,-1.64331 0.89917,-0.58911 2.41846,-0.58911 0.74414,0 1.33325,0.062 0.62012,0.062 1.11621,0.12402 l 0.43408,0.34107 q 0.62012,-0.15503 1.0232,-0.27905 0.40307,-0.15503 0.62011,-0.15503 1.76734,0.34106 3.6897,0.71313 0.5271,0.031 1.30225,0.15503 0.77514,0.093 1.76733,0.27905 0.43408,0.27906 1.08521,0.58911 0.68212,0.31006 1.58129,0.71314 1.17823,0.43408 2.0774,1.20923 0.89917,0.74414 1.42627,1.67431 0.49609,0.80616 0.71313,1.5503 0.21704,0.71313 0.21704,1.36425 0,1.0232 -0.24804,1.89136 -0.24805,0.86817 -0.74415,1.5813 l -0.40307,1.20923 q -0.062,0.24805 -0.31006,0.68213 -0.21704,0.43408 -0.55811,0.86816 -0.5271,0.71314 -1.14721,1.45728 -0.15503,0.37207 -0.55811,0.86816 -0.40307,0.46509 -1.02319,0.99219 -0.12402,0.062 -0.31006,0.27905 -0.15503,0.21704 -0.31006,0.5271 -0.34106,0.71314 -1.0542,1.67432 -0.71313,0.96118 -1.76733,2.23242 -1.39527,1.6123 -2.20142,2.60449 -0.77514,0.96118 -1.0852,1.36426 -0.37207,0.31006 -0.74414,0.65112 -0.37207,0.34107 -0.80616,0.80616 l -0.40307,0.93017 q -0.15503,0.40308 -1.08521,1.61231 -0.93017,1.17822 -2.60449,3.1936 -1.64331,1.86035 -2.41846,3.03857 -0.77514,1.17823 -0.77514,1.61231 0,0.21704 0.24804,0.31006 l 1.20923,-0.21704 q 0.43408,0.093 0.83716,0.15503 0.77515,-0.12403 1.55029,-0.15503 l 1.08521,0.31005 q 0.86816,-0.27905 1.51929,-0.37207 0.68212,-0.12402 1.14721,-0.12402 1.5813,0 2.94556,-0.21704 1.36426,-0.21704 2.51147,-0.68213 0.62012,-0.062 1.5503,-0.24805 0.93017,-0.21704 2.1394,-0.5271 0.34107,-0.15502 0.71314,-0.27905 0.37207,-0.12402 0.77514,-0.31006 0.4961,-0.093 0.93018,-0.18603 0.46509,-0.093 0.77514,-0.21704 z"
         style="font-style:normal;font-variant:normal;font-weight:normal;font-stretch:normal;font-size:63.5px;font-family:Mistral;-inkscape-font-specification:Mistral;stroke-width:0.264583"
         id="path69" />
      <path
         d="m 310.3064,647.28473 2.82153,-1.86035 q 0.15503,-0.15503 0.37207,-0.40308 0.21704,-0.27905 0.49609,-0.77515 0.21704,-0.40307 0.55811,-0.68212 0.37207,-0.27906 0.83716,-0.4961 0.24804,-0.31006 0.71313,-0.77514 0.46509,-0.46509 1.17822,-1.08521 0.34107,-0.18603 0.86817,-0.5271 0.5271,-0.37207 1.14722,-0.96118 2.82153,-2.6665 4.92993,-3.99976 2.1394,-1.33325 3.59668,-1.33325 0.80615,0 1.17822,0.34107 0.40308,0.34106 0.40308,0.96118 0,0.65112 -0.24805,1.14721 -0.21704,0.4961 -0.71314,0.83716 -0.77514,0.55811 -1.67431,1.24024 -0.4961,0.65112 -1.20923,1.39526 -0.71314,0.71314 -1.67432,1.42627 -0.31006,0.40308 -0.5271,0.71313 -0.15503,0.15503 -0.58911,0.55811 -0.43408,0.40308 -1.14721,0.93018 -0.31006,0.68213 -1.36426,1.76733 -1.0232,1.08521 -2.75952,2.60449 -0.21705,0.21704 -0.77515,0.99219 -0.55811,0.77515 -1.45728,2.04639 l 0.21704,0.27905 q 0.68213,-0.21704 1.42627,-0.74414 0.74415,-0.5271 1.64332,-1.39526 1.05419,-0.96119 1.70532,-1.5503 0.68213,-0.62012 0.96118,-0.80615 0.21704,-0.12402 0.43408,-0.24805 0.21704,-0.12402 0.49609,-0.31006 1.42627,-1.70532 2.66651,-2.51147 1.24023,-0.83716 2.29443,-0.83716 0.65113,0 0.99219,0.5271 0.34106,0.49609 0.40308,1.51929 -0.062,1.55029 -0.062,2.97656 -0.031,0.99219 0.5271,1.79834 0.58912,0.77515 1.51929,0.77515 0.27905,0 0.5271,-0.15503 0.27905,-0.15503 0.55811,-0.40308 0.21704,-0.27905 0.40307,-0.5271 0.21704,-0.24804 0.43408,-0.49609 0.12403,-0.062 0.34107,-0.21704 0.24805,-0.15503 0.46509,-0.37207 0.43408,0.93017 0.71313,1.64331 0.31006,0.68213 0.46509,1.20923 -0.71314,0.65112 -1.42627,1.36425 -0.68213,0.68213 -1.45728,1.30225 -0.93017,0.71313 -1.79834,1.0852 -0.86816,0.34107 -1.73632,0.34107 -2.01538,0 -3.10059,-1.14722 -1.0852,-1.14721 -1.27124,-3.47265 0,-0.27906 -0.093,-0.55811 -0.062,-0.31006 -0.31006,-0.62012 -0.15503,0.15503 -0.34106,0.34107 -0.18604,0.15503 -0.43408,0.43408 -0.40308,0.31006 -1.0232,0.77515 -0.58911,0.46508 -1.39526,1.11621 -1.0852,1.11621 -1.82935,1.82934 -0.74414,0.71314 -1.05419,1.0232 -0.62012,0.5271 -1.45728,1.0542 -0.80615,0.5271 -1.82935,1.0852 -0.65112,0.34107 -1.11621,0.5271 -0.46508,0.21704 -0.68213,0.21704 -1.48828,0 -2.20141,-0.71313 -0.71314,-0.74414 -0.71314,-2.26343 0,-0.83716 0.37207,-1.5813 0.34107,-0.77515 1.0542,-1.48828 0.062,-0.40308 0.062,-0.65112 0,-0.15503 -0.093,-0.31006 -0.062,-0.18604 -0.18604,-0.40308 -0.18603,-0.43408 -0.40307,-0.96118 -0.24805,-0.55811 -0.5271,-1.17822 0.12402,-0.12403 0.37207,-0.46509 0.21704,-0.37207 0.5271,-0.89917 z"
         style="font-style:normal;font-variant:normal;font-weight:normal;font-stretch:normal;font-size:63.5px;font-family:Mistral;-inkscape-font-specification:Mistral;stroke-width:0.264583"
         id="path71" />
      <path
         d="m 333.15771,648.64899 q 0.18604,-0.21704 0.43409,-0.55811 0.24804,-0.37207 0.5581,-0.80615 1.36426,-1.70532 2.6355,-3.03858 1.30225,-1.36425 2.44946,-2.41845 0.58911,-0.55811 1.42627,-1.42627 0.83716,-0.89917 1.95337,-2.04639 1.11621,-0.43408 2.44946,-0.99219 0.83716,0 1.24024,0.55811 0.40308,0.5271 0.40308,1.55029 0,0.86817 -0.15503,1.89136 -0.12403,0.99219 -0.37207,2.04639 -0.27906,0.83715 -0.46509,1.6123 0,0.21704 0.093,0.34107 0.093,0.093 0.31005,0.093 0.46509,-0.21704 1.79834,-1.55029 1.33326,-1.33325 3.50367,-3.7207 1.86035,-2.04639 3.25561,-3.03858 1.39526,-1.02319 2.23242,-1.02319 0.89917,0 1.30225,0.68213 0.43408,0.65112 0.43408,1.95337 0,1.89136 -0.27905,3.65869 -0.27905,1.73633 -0.96118,3.34863 -0.12403,0.31006 -0.15503,0.5271 -0.031,0.21704 -0.031,0.40308 0,0.21704 0.37207,0.40307 0.24805,-0.21704 0.55811,-0.62011 0.34106,-0.40308 0.77514,-1.0232 0.71314,-0.58911 1.42627,-1.17822 0.71314,-0.58911 1.5503,-1.20923 0.86816,-0.68213 1.76733,-1.02319 0.89917,-0.37207 1.76733,-0.37207 0.15503,0 0.31006,0.093 0.15503,0.093 0.31006,0.21704 0.71314,0.62011 1.17822,1.14721 0.46509,0.4961 0.65113,0.86817 1.20923,2.48047 2.1394,3.7207 0.96118,1.20923 1.67432,1.20923 0.15503,0 0.31006,-0.062 0.15503,-0.093 0.31006,-0.21704 0.71313,1.51928 1.20922,2.85254 -1.11621,0.86816 -1.98437,1.33325 -0.86817,0.43408 -1.51929,0.43408 -2.1394,0 -4.43384,-2.75952 -2.26342,-2.79053 -3.47265,-2.79053 -1.61231,0 -5.36402,4.7749 -3.75171,4.7439 -4.68188,4.7439 -0.46509,0 -1.24024,-0.093 -0.24804,-0.093 -0.37207,-0.37207 -0.12402,-0.31006 -0.12402,-0.71313 0,-0.46509 0.18604,-1.20923 0.18603,-0.77515 0.49609,-1.79834 0.40308,-1.30225 0.65112,-2.07739 0.24805,-0.77515 0.27906,-1.08521 0.093,-0.40307 0.24804,-1.5813 0.18604,-1.17822 0.46509,-3.13159 0,-0.34106 -0.18603,-0.5271 -0.18604,-0.18603 -0.43409,-0.18603 -0.21704,0 -0.49609,0.15503 -0.24805,0.12402 -0.58911,0.43408 -0.37207,0.40307 -0.83716,0.80615 -0.43408,0.40308 -1.42627,1.14722 -1.0852,1.24023 -2.23242,2.54248 -1.11621,1.27124 -2.29444,2.57348 -1.86035,2.17041 -2.97656,3.22461 -1.0852,1.0232 -1.39526,1.0232 -0.93018,0 -1.42627,-0.21705 -0.46509,-0.21704 -0.46509,-0.65112 0,-1.02319 1.08521,-4.2478 1.11621,-3.25562 1.11621,-4.58887 0,-0.21704 -0.15503,-0.34106 -0.12403,-0.15503 -0.34107,-0.15503 -0.37207,0 -0.89917,0.43408 -0.49609,0.40308 -1.14721,1.30225 -0.43409,0.49609 -1.0542,1.14721 -0.62012,0.65113 -1.51929,1.51929 -0.093,0.24805 -0.24805,0.49609 -0.15503,0.21704 -0.34106,0.43409 -0.12402,-0.46509 -0.43408,-1.14722 -0.31006,-0.68213 -0.80616,-1.70532 z"
         style="font-style:normal;font-variant:normal;font-weight:normal;font-stretch:normal;font-size:63.5px;font-family:Mistral;-inkscape-font-specification:Mistral;stroke-width:0.264583"
         id="path73" />
      <path
         d="m 372.28711,648.64899 q 0.37207,-0.43409 0.89917,-1.0542 0.5271,-0.62012 1.33325,-1.48828 0.31006,-0.86817 0.55811,-2.13941 0.27905,-1.30224 0.46508,-3.03857 0.21705,-1.76734 0.46509,-3.06958 0.27906,-1.33325 0.4961,-2.13941 1.39526,-4.37182 2.17041,-6.75927 0.77514,-2.41846 0.89917,-2.85254 1.02319,-2.82154 2.1394,-5.02295 1.14722,-2.23242 2.29443,-3.87573 0.27906,-0.31006 0.58912,-0.65113 0.31005,-0.37207 0.71313,-0.77514 1.14722,-0.5271 2.1394,-1.0232 0.55811,-0.24804 1.11622,-0.40307 0.58911,-0.15503 1.14721,-0.15503 0.86817,0 1.33325,0.83716 0.46509,0.80615 0.46509,2.44946 0,1.02319 -0.27905,2.29443 -0.27905,1.24024 -0.77515,2.72852 -0.74414,2.1084 -1.14721,3.37964 -0.40308,1.24023 -0.4961,1.55029 -0.12402,0.65112 -0.58911,1.64331 -0.46509,0.99219 -1.24023,2.41846 -0.96118,1.82934 -1.51929,2.82153 -0.5271,0.99219 -0.62012,1.17822 -0.21704,0.21704 -0.46509,0.46509 -0.21704,0.21704 -0.46508,0.46509 v 0.71313 q -0.15503,0.37207 -0.31006,0.5271 -0.5271,1.0232 -1.42627,2.54248 -0.86817,1.51929 -2.17041,3.47266 -0.74414,1.02319 -1.11621,1.79834 -0.37207,0.77515 -0.37207,1.33325 v 2.72852 q 0.15503,0.80615 0.34106,1.6123 0.18604,0.77515 0.37207,1.51929 0.15503,0.99219 0.58911,1.51929 0.43409,0.49609 0.99219,0.49609 1.24024,0 2.04639,-0.58911 0.83716,-0.62012 1.24023,-1.86035 -0.83716,-0.34107 -1.30224,-0.77515 -0.43409,-0.46509 -0.43409,-0.96118 0.15503,-0.31006 0.24805,-0.68213 0.12402,-0.37207 0.24805,-0.77515 0.031,-0.21704 0.093,-0.43408 0.093,-0.21704 0.12403,-0.5581 1.42627,-2.6045 2.60449,-3.90674 1.17822,-1.33325 2.1084,-1.33325 0.21704,0 0.71313,0.093 0.4961,0.062 0.74414,0.062 0.18604,0 0.58912,-0.093 0.40307,-0.12403 0.58911,-0.12403 0.5271,0 0.74414,0.37207 0.21704,0.34107 0.21704,0.96119 0,1.33325 -0.77515,2.88354 -0.77514,1.55029 -0.77514,1.76733 0,0.18604 0.24804,0.40308 0.18604,-0.062 0.37207,-0.18603 0.21704,-0.12403 0.40308,-0.31006 0.12402,0.40307 0.37207,0.93017 0.27905,0.5271 0.58911,1.20923 0.15503,0.21704 0.21704,0.40308 0.062,0.15503 0.062,0.31006 -1.30224,1.33325 -2.29443,2.04638 -0.99219,0.71314 -1.67432,0.77515 -0.21704,0 -0.5271,0 -0.31005,-0.031 -0.74414,-0.062 -0.43408,0.5271 -1.0542,1.20923 -0.58911,0.68212 -1.33325,1.6123 -0.31006,0.21704 -0.77514,0.58911 -0.46509,0.34107 -1.0542,0.86817 -0.89917,0.89917 -1.79834,1.30224 -0.86817,0.43408 -1.76734,0.43408 -0.40307,0 -0.80615,-0.12402 -0.37207,-0.093 -0.86816,-0.40308 -0.37207,-0.18603 -0.80616,-0.5271 -0.40307,-0.31005 -0.89917,-0.74414 -0.62011,-1.89135 -0.89917,-3.50366 -0.27905,-1.6123 -0.27905,-3.06958 0,-0.24804 -0.062,-0.40307 -0.031,-0.18604 -0.12402,-0.31006 l -0.27906,-0.093 -0.21704,0.093 -0.31006,0.31006 q -0.24804,-0.68213 -0.5581,-1.39527 -0.31006,-0.71313 -0.68213,-1.45727 z m 14.35571,-25.20777 q 0,-0.15503 -0.062,-0.24804 -0.031,-0.12403 -0.15503,-0.21704 -0.18603,-0.031 -0.43408,0.43408 -0.24805,0.43408 -0.46509,1.27124 -0.12402,0.62011 -0.5581,1.45727 -0.43409,0.83716 -1.11622,1.98438 -0.58911,0.99219 -1.14721,2.23242 -0.55811,1.20923 -1.11621,2.6355 -0.71314,1.67431 -1.0542,2.94555 -0.34107,1.27124 -0.34107,2.04639 l 0.062,0.27905 q 0.24804,-0.12402 0.80615,-1.20922 0.58911,-1.08521 1.51928,-3.1316 0.86817,-1.79834 1.27124,-2.82153 0.43409,-1.02319 0.5271,-1.36426 0.24805,-0.83716 0.58912,-1.95337 0.34106,-1.11621 0.77514,-2.48047 0.31006,-0.52709 0.5271,-0.89917 0.18604,-0.24804 0.27905,-0.49609 0.093,-0.24805 0.093,-0.46509 z"
         style="font-style:normal;font-variant:normal;font-weight:normal;font-stretch:normal;font-size:63.5px;font-family:Mistral;-inkscape-font-specification:Mistral;stroke-width:0.264583"
         id="path75" />
      <path
         d="m 390.82861,648.64899 q 0.4961,-0.65113 0.99219,-1.36426 2.26343,-1.86035 3.6897,-3.56567 1.45727,-1.73633 2.1084,-3.22461 l -0.31006,-1.48829 q 0.40307,-0.77514 1.98437,-1.82934 1.61231,-1.0542 2.6045,-1.0542 1.05419,0 1.76733,0.62012 0.74414,0.62011 1.42627,1.30224 0.34106,0.21704 0.49609,0.34107 1.24024,0.93017 1.86035,2.57348 0.62012,1.64331 0.62012,3.99976 0,1.24023 -0.96118,3.56567 -0.96118,2.29444 -0.96118,3.47266 0,0.15503 0.093,0.24805 0.12402,0.093 0.31005,0.093 0.40308,0 0.96119,-0.34106 0.5581,-0.37207 1.20922,-0.99219 1.64331,-1.6123 1.98438,-1.76733 0.34106,-0.18604 0.83716,-0.58911 0.24804,0.62011 0.58911,1.33325 0.34106,0.71313 0.65112,1.51929 -0.27905,0.24804 -0.65112,0.58911 -0.34107,0.34106 -0.83716,0.77514 -1.0542,0.77515 -2.75952,1.89136 -1.67432,1.08521 -4.03076,2.51148 -0.62012,0.40307 -1.42627,0.65112 -1.30225,0 -1.95337,-0.37207 -0.65112,-0.40308 -0.65112,-1.27124 0,-0.34107 0.12402,-0.77515 0.15503,-0.46509 0.40308,-0.99219 0.18603,-0.40307 0.40307,-0.80615 0.21704,-0.43408 0.37207,-0.86816 0.68213,-1.95337 1.02319,-3.62769 0.37208,-1.67431 0.37208,-3.00757 0,-1.64331 -0.5271,-2.51147 -0.4961,-0.86816 -1.51929,-0.99219 -0.68213,0.37207 -1.48828,1.0542 -0.80616,0.68213 -1.64331,1.70532 -0.89917,1.11621 -1.61231,1.82935 -0.71313,0.71313 -1.17822,0.96118 -0.27905,0.46509 -0.89917,1.0542 -0.62012,0.58911 -1.64331,1.27124 -0.062,0.12402 -0.18604,0.37207 -0.12402,0.24805 -0.40307,0.55811 -0.24805,-0.71314 -0.55811,-1.39527 -0.31006,-0.71313 -0.68213,-1.45727 z"
         style="font-style:normal;font-variant:normal;font-weight:normal;font-stretch:normal;font-size:63.5px;font-family:Mistral;-inkscape-font-specification:Mistral;stroke-width:0.264583"
         id="path77" />
      <path
         d="m 412.50171,647.28473 2.82153,-1.86035 q 0.15503,-0.15503 0.37207,-0.40308 0.21704,-0.27905 0.4961,-0.77515 0.21704,-0.40307 0.5581,-0.68212 0.37207,-0.27906 0.83716,-0.4961 0.24805,-0.31006 0.71313,-0.77514 0.46509,-0.46509 1.17823,-1.08521 0.34106,-0.18603 0.86816,-0.5271 0.5271,-0.37207 1.14722,-0.96118 2.82153,-2.6665 4.92993,-3.99976 2.1394,-1.33325 3.59668,-1.33325 0.80615,0 1.17822,0.34107 0.40308,0.34106 0.40308,0.96118 0,0.65112 -0.24805,1.14721 -0.21704,0.4961 -0.71313,0.83716 -0.77515,0.55811 -1.67432,1.24024 -0.49609,0.65112 -1.20923,1.39526 -0.71313,0.71314 -1.67431,1.42627 -0.31006,0.40308 -0.5271,0.71313 -0.15503,0.15503 -0.58912,0.55811 -0.43408,0.40308 -1.14721,0.93018 -0.31006,0.68213 -1.36426,1.76733 -1.02319,1.08521 -2.75952,2.60449 -0.21704,0.21704 -0.77515,0.99219 -0.5581,0.77515 -1.45727,2.04639 l 0.21704,0.27905 q 0.68213,-0.21704 1.42627,-0.74414 0.74414,-0.5271 1.64331,-1.39526 1.0542,-0.96119 1.70532,-1.5503 0.68213,-0.62012 0.96118,-0.80615 0.21704,-0.12402 0.43408,-0.24805 0.21704,-0.12402 0.4961,-0.31006 1.42627,-1.70532 2.6665,-2.51147 1.24024,-0.83716 2.29443,-0.83716 0.65113,0 0.99219,0.5271 0.34107,0.49609 0.40308,1.51929 -0.062,1.55029 -0.062,2.97656 -0.031,0.99219 0.5271,1.79834 0.58911,0.77515 1.51928,0.77515 0.27906,0 0.5271,-0.15503 0.27906,-0.15503 0.55811,-0.40308 0.21704,-0.27905 0.40307,-0.5271 0.21705,-0.24804 0.43409,-0.49609 0.12402,-0.062 0.34106,-0.21704 0.24805,-0.15503 0.46509,-0.37207 0.43408,0.93017 0.71313,1.64331 0.31006,0.68213 0.46509,1.20923 -0.71313,0.65112 -1.42627,1.36425 -0.68213,0.68213 -1.45727,1.30225 -0.93018,0.71313 -1.79834,1.0852 -0.86817,0.34107 -1.73633,0.34107 -2.01538,0 -3.10059,-1.14722 -1.0852,-1.14721 -1.27124,-3.47265 0,-0.27906 -0.093,-0.55811 -0.062,-0.31006 -0.31006,-0.62012 -0.15503,0.15503 -0.34107,0.34107 -0.18603,0.15503 -0.43408,0.43408 -0.40308,0.31006 -1.02319,0.77515 -0.58911,0.46508 -1.39527,1.11621 -1.0852,1.11621 -1.82934,1.82934 -0.74414,0.71314 -1.0542,1.0232 -0.62012,0.5271 -1.45728,1.0542 -0.80615,0.5271 -1.82934,1.0852 -0.65113,0.34107 -1.11621,0.5271 -0.46509,0.21704 -0.68213,0.21704 -1.48828,0 -2.20142,-0.71313 -0.71313,-0.74414 -0.71313,-2.26343 0,-0.83716 0.37207,-1.5813 0.34106,-0.77515 1.0542,-1.48828 0.062,-0.40308 0.062,-0.65112 0,-0.15503 -0.093,-0.31006 -0.062,-0.18604 -0.18604,-0.40308 -0.18603,-0.43408 -0.40307,-0.96118 -0.24805,-0.55811 -0.5271,-1.17822 0.12402,-0.12403 0.37207,-0.46509 0.21704,-0.37207 0.5271,-0.89917 z"
         style="font-style:normal;font-variant:normal;font-weight:normal;font-stretch:normal;font-size:63.5px;font-family:Mistral;-inkscape-font-specification:Mistral;stroke-width:0.264583"
         id="path79" />
      <path
         d="m 435.35303,648.64899 q 0.12402,-0.21704 0.34106,-0.46509 0.18604,-0.27905 0.46509,-0.65112 0.31006,-0.24805 0.80615,-0.71314 0.4961,-0.46509 1.11621,-1.0852 0.55811,-0.62012 1.36426,-1.51929 0.80615,-0.93018 1.95337,-2.23242 0.49609,-0.5271 1.24023,-1.33325 0.74414,-0.83716 1.76734,-1.98438 0.86816,-1.02319 1.86035,-1.51929 0.99219,-0.49609 2.1084,-0.49609 1.11621,0 1.64331,0.71313 0.5271,0.68213 0.5271,2.01538 0,0.71314 -0.5271,2.72852 -0.5271,2.01538 -1.64331,5.33301 -0.27905,0.62012 -0.5271,1.17822 -0.18604,0.40308 -0.24805,0.71314 -0.062,0.31005 -0.062,0.46508 0,0.18604 0.21704,0.46509 0.15503,-0.093 0.27905,-0.24805 0.15503,-0.15502 0.34107,-0.37207 0.24805,-0.46508 0.74414,-0.96118 0.5271,-0.5271 1.24023,-1.14721 0.27906,-0.5271 0.71314,-1.0232 0.46509,-0.5271 1.02319,-0.96118 0.12402,-0.12402 0.31006,-0.40308 0.21704,-0.27905 0.49609,-0.58911 0.40308,-0.40307 0.96119,-0.83715 0.5581,-0.43409 1.30224,-0.89917 0.83716,-0.43409 1.48828,-0.68213 0.68213,-0.24805 1.17823,-0.24805 0.96118,0 1.70532,0.46509 0.74414,0.46509 1.27124,1.45727 0.62012,1.92237 1.17822,3.56568 0.34106,0.96118 0.74414,1.42627 0.43408,0.46508 0.96118,0.46508 0.40308,0 0.71314,-0.15503 0.34106,-0.15502 0.62011,-0.46508 l 1.24024,2.85254 q -0.5271,0.43408 -1.08521,0.89917 -0.5581,0.46508 -1.0852,0.89917 -0.71314,0.65112 -1.33325,0.93017 -0.62012,0.24805 -1.24024,0.24805 -0.71313,0 -1.36426,-0.31006 -0.65112,-0.31006 -1.11621,-0.93018 -0.24804,-0.24804 -0.62011,-0.89917 -0.37207,-0.68212 -0.86817,-1.67431 -0.40307,-0.40308 -0.93017,-1.0542 -0.4961,-0.68213 -1.17823,-1.5813 l -0.27905,-0.093 q -0.58911,0.18604 -1.17822,0.55811 -0.55811,0.37207 -1.20923,0.96118 -1.39526,1.24023 -2.01538,1.55029 -0.62012,0.31006 -0.83716,0.71314 -0.43408,0.74414 -1.48828,1.92236 -1.0542,1.17822 -2.6355,2.79053 -0.40307,0.40307 -0.80615,0.80615 -0.40308,0.37207 -0.80615,0.74414 -0.40308,0.34106 -0.93018,0.46509 -0.49609,0.15503 -1.11621,0.15503 -1.24023,0 -1.36426,-0.83716 -0.093,-0.86816 -0.18603,-1.73633 0.46509,-1.30224 1.0542,-3.25561 0.58911,-1.95337 1.36425,-4.55787 0,-0.15502 0.093,-0.40307 0.12403,-0.27905 0.27905,-0.71314 0.15503,-0.40307 0.21705,-0.68213 0.062,-0.31005 0.062,-0.52709 0,-0.21705 -0.15503,-0.34107 -0.15503,-0.12402 -0.4961,-0.12402 -0.31005,0 -0.83715,0.37207 -0.4961,0.37207 -1.20923,1.17822 -0.86817,0.93018 -1.39527,1.45728 -0.5271,0.5271 -0.71313,0.62011 -0.31006,0.21704 -0.74414,0.62012 -0.40308,0.40308 -0.93018,0.89917 -0.062,0.12402 -0.18603,0.37207 -0.12403,0.24805 -0.40308,0.55811 -0.12402,-0.46509 -0.43408,-1.14722 -0.31006,-0.68213 -0.80615,-1.70532 z"
         style="font-style:normal;font-variant:normal;font-weight:normal;font-stretch:normal;font-size:63.5px;font-family:Mistral;-inkscape-font-specification:Mistral;stroke-width:0.264583"
         id="path81" />
      <path
         d="m 464.99463,648.64899 q 0.21704,-0.21704 0.46509,-0.55811 0.21704,-0.37207 0.5271,-0.80615 l 2.38745,-1.64331 q 0.43408,-0.5271 1.33325,-1.33325 0.89917,-0.83716 2.23242,-2.01538 0.15503,-0.34107 0.4961,-0.77515 0.37207,-0.46509 0.86816,-0.89917 0.43408,-0.40308 0.86816,-0.74414 0.43409,-0.37207 0.80616,-0.71314 0.46508,-0.46508 0.86816,-0.93017 0.43408,-0.46509 0.86816,-0.89917 0.4961,-0.43408 1.0232,-0.68213 0.5271,-0.24805 1.14721,-0.24805 0.68213,0 1.0232,0.18604 0.37207,0.15503 0.40307,0.46509 -0.31006,0.71313 -0.65112,1.42626 l 0.18604,0.27906 q 1.36425,-0.5271 2.1394,-0.77515 0.77515,-0.24805 0.99219,-0.24805 2.26343,0 3.37964,1.39527 1.14721,1.36426 1.14721,4.15478 0,0.5271 -0.12402,1.24024 -0.12402,0.71313 -0.40308,1.55029 -0.31006,0.93018 -0.68213,1.55029 -0.34106,0.62012 -0.65112,0.89917 0.12402,0.40308 0.27905,0.58911 0.15503,0.15503 0.40308,0.15503 0.24805,0 0.49609,-0.15503 0.27906,-0.15502 0.65113,-0.46508 0.31006,0.68213 0.58911,1.42627 0.31006,0.71313 0.62012,1.42627 -0.55811,0.49609 -1.08521,0.96118 -0.5271,0.46509 -1.11621,0.89917 -0.71314,0.58911 -1.36426,0.86816 -0.62012,0.24805 -1.24023,0.24805 -0.71314,0 -1.17823,-0.34107 -0.46508,-0.34106 -0.74414,-0.96118 -0.77514,1.0232 -1.89135,1.89136 -1.08521,0.83716 -2.41846,1.39526 -0.77515,0.37207 -1.42627,0.58911 -0.62012,0.18604 -1.14722,0.18604 -0.15503,0 -0.62011,0.12402 -0.43409,0.12403 -0.71314,0.12403 -1.76733,0 -3.1936,-1.48828 -1.42627,-1.48829 -1.42627,-3.31763 0,-0.74414 0.34106,-1.95337 0.34107,-1.24023 0.34107,-1.45728 0,-0.21704 -0.15503,-0.34106 -0.12403,-0.15503 -0.37207,-0.15503 -0.15503,0 -0.74414,0.46509 -0.58911,0.46509 -1.67432,1.33325 -0.093,0.12402 -0.21704,0.37207 -0.12402,0.24805 -0.40308,0.55811 -0.24804,-0.71314 -0.5581,-1.42627 -0.31006,-0.74414 -0.68213,-1.42627 z m 14.91382,-5.67408 q -0.15503,0.031 -0.46509,0.34107 -0.27905,0.27905 -0.55811,0.71313 -0.43408,0.71314 -0.99218,1.5503 -0.34107,0.37207 -0.74414,0.58911 -0.37207,0.18603 -0.86817,0.27905 -0.31006,0.031 -0.65112,0.62012 -0.34107,0.5581 -0.68213,1.64331 -0.34106,0.96118 -0.49609,1.64331 -0.15503,0.68213 -0.15503,1.14722 0,0.86816 0.43408,1.30224 0.43408,0.43408 1.33325,0.43408 1.42627,0 2.60449,-0.77514 1.20923,-0.80615 2.26343,-2.38745 0.49609,-0.58911 0.93018,-1.11621 0.24804,-0.18604 0.40307,-0.58912 0.15503,-0.43408 0.31006,-1.0542 l 0.55811,-1.76733 q -0.27906,-0.93017 -0.5271,-1.45727 -0.24805,-0.55811 -0.4961,-0.68213 -0.15503,-0.093 -0.68213,-0.18604 -0.5271,-0.12402 -1.51928,-0.24805 z"
         style="font-style:normal;font-variant:normal;font-weight:normal;font-stretch:normal;font-size:63.5px;font-family:Mistral;-inkscape-font-specification:Mistral;stroke-width:0.264583"
         id="path83" />
    </g>
    <g
       aria-label="J"
       id="text68"
       style="font-style:normal;font-variant:normal;font-weight:normal;font-stretch:normal;font-size:50.8px;line-height:2;font-family:Castellar;-inkscape-font-specification:'Castellar, Normal';font-variant-ligatures:normal;font-variant-caps:normal;font-variant-numeric:normal;font-feature-settings:normal;text-align:start;letter-spacing:0px;word-spacing:0px;writing-mode:lr-tb;text-anchor:start;fill:#000000;fill-opacity:1;stroke:none;stroke-width:0.264583">
      <path
         d="m 197.97766,556.81835 q 0.86128,-1.46416 2.4977,-2.32544 1.72255,-0.9474 3.87573,-1.63642 1.11966,-1.29191 2.84221,-3.01446 0.51676,-0.51677 1.37804,-1.03353 0.9474,-0.60289 2.06706,-1.11966 1.72255,-0.68902 3.01446,-1.29191 1.98093,0 3.01446,3.01446 1.03353,3.01446 1.03353,9.04338 0,9.21564 -1.20579,16.79486 -1.11965,7.49308 -3.44509,13.26362 -0.25839,0.68902 -0.6029,1.5503 -0.25838,0.86127 -0.68902,1.8948 -0.25838,1.55029 -0.77514,3.61735 -0.43064,2.06706 -1.03353,4.82314 -0.17226,0.9474 -0.25838,2.23931 0,1.20579 -0.34451,3.01446 -0.17226,1.11966 -1.03353,3.87574 -0.86128,2.66995 -2.58383,6.89019 l 0.34451,1.89481 q -0.68902,2.41157 -1.8948,5.94279 -1.11966,3.53123 -2.75608,8.09598 -0.51676,2.23932 -1.55029,5.42603 -1.03353,3.10059 -2.4977,7.23471 -0.25838,2.23931 -0.51676,3.87573 -0.17226,0.68902 -1.11966,3.70348 -0.9474,3.01446 -3.10059,8.35436 -0.60289,1.46417 -2.23931,2.75608 -1.5503,1.20579 -4.30637,2.32544 -2.32545,0.9474 -4.47863,1.46417 -2.06706,0.51676 -3.96186,0.51676 -2.84221,0 -4.90927,-1.20578 -2.06706,-1.29191 -3.01446,-3.61735 -3.35897,-8.26824 -4.90926,-13.1775 -1.63642,-4.99539 -1.5503,-6.54569 -0.43063,-0.77515 -1.20578,-2.75608 -0.86128,-1.98093 -1.72255,-5.42603 -0.86127,-3.10058 -1.20578,-5.25377 -0.43064,-2.15319 -0.43064,-3.35897 0,-5.59828 0.86127,-8.35436 0.86128,-2.84221 2.58383,-2.84221 3.01446,0 5.16764,0.86128 2.23932,0.86127 3.78961,2.41157 0.86127,1.03352 1.80868,3.18671 1.03353,2.15319 2.32544,5.51216 1.72255,3.87573 2.49769,6.2873 0.86128,2.41157 0.86128,3.18672 0,1.55029 -2.15319,2.8422 -2.06706,1.20579 -2.06706,2.23932 0.77515,1.46416 1.29191,3.01446 0.6029,1.55029 1.20579,2.8422 0.9474,2.32544 1.8948,3.4451 1.03353,1.03353 2.06706,1.03353 1.37804,0 3.10059,-3.87574 1.80868,-3.87573 3.87573,-11.71333 1.63643,-5.77054 2.84221,-10.50755 1.29191,-4.73701 1.8948,-8.69887 0.6029,-1.63642 1.29192,-3.87573 0.68902,-2.32545 1.55029,-5.51216 0.25838,-0.68902 0.25838,-1.63642 0.0861,-1.03353 0.34451,-2.41157 0.68902,-4.30637 1.46417,-8.69887 0.86127,-4.47863 1.63642,-8.87113 0.86127,-5.16765 1.20578,-9.56015 0.34451,-4.47862 0.34451,-8.1821 0,-3.10059 -4.22024,-3.70348 -4.22025,-0.6029 -4.22025,-1.98093 0,-1.20579 1.46417,-2.75608 1.46417,-1.63642 4.30637,-3.53123 z"
         style="font-style:normal;font-variant:normal;font-weight:normal;font-stretch:normal;font-size:176.389px;font-family:Mistral;-inkscape-font-specification:Mistral;stroke-width:0.264583"
         id="path86" />
    </g>
  </g>
</svg>
